<?xml version="1.0" standalone="no"?>
<!DOCTYPE svg PUBLIC "-//W3C//DTD SVG 20010904//EN"
 "http://www.w3.org/TR/2001/REC-SVG-20010904/DTD/svg10.dtd">
<svg version="1.0" xmlns="http://www.w3.org/2000/svg"
 width="355.000000pt" height="394.000000pt" viewBox="0 0 355.000000 394.000000"
 preserveAspectRatio="xMidYMid meet">

<g transform="translate(0.000000,394.000000) scale(0.100000,-0.100000)"
fill="#000000" stroke="none">
<path d="M990 3698 c0 -225 2 -250 24 -333 29 -107 71 -215 126 -325 l40 -80
0 -318 0 -318 -570 -935 c-314 -514 -580 -946 -590 -961 -11 -15 -20 -31 -20
-35 1 -4 24 -26 52 -48 208 -163 510 -258 978 -309 80 -9 184 -21 231 -26 110
-13 811 -13 932 0 51 5 144 14 207 20 498 48 874 155 1088 310 56 41 77 73 53
82 -6 1 -88 131 -184 288 -95 157 -312 512 -482 790 -170 278 -353 577 -407
666 l-98 161 0 313 0 313 49 101 c59 124 94 217 121 320 17 69 20 111 20 323
l0 243 -95 0 -95 0 0 -199 0 -198 -69 -7 c-37 -3 -108 -17 -157 -32 -207 -59
-317 -145 -358 -276 -8 -24 -15 -34 -15 -23 -2 41 -50 121 -98 166 -85 80
-263 149 -428 167 l-60 7 -3 198 -2 197 -95 0 -95 0 0 -242z"/>
</g>
</svg>
