<?xml version="1.0" standalone="no"?>
<!DOCTYPE svg PUBLIC "-//W3C//DTD SVG 20010904//EN"
 "http://www.w3.org/TR/2001/REC-SVG-20010904/DTD/svg10.dtd">
<svg version="1.0" xmlns="http://www.w3.org/2000/svg"
 width="626.000000pt" height="626.000000pt" viewBox="0 0 626.000000 626.000000"
 preserveAspectRatio="xMidYMid meet">

<g transform="translate(0.000000,626.000000) scale(0.100000,-0.100000)"
fill="#000000" stroke="none">
<path d="M418 5688 c-43 -11 -52 -38 -13 -38 l25 0 0 -465 c0 -454 0 -465 20
-465 16 0 19 8 22 58 l3 57 455 0 455 0 3 -57 c3 -50 6 -58 22 -58 20 0 20 11
20 465 l0 465 25 0 c42 0 29 27 -19 39 -57 14 -964 13 -1018 -1z"/>
<path d="M1925 5694 c-114 -23 -126 -27 -145 -51 -39 -50 -14 -111 53 -127 25
-6 27 -10 27 -54 0 -26 3 -77 6 -113 l7 -66 -61 -12 c-52 -10 -60 -15 -65 -37
-3 -18 2 -33 14 -45 18 -18 19 -29 9 -222 -5 -111 -13 -237 -16 -279 -7 -74
-6 -78 13 -78 22 0 22 -2 39 218 6 77 8 83 28 80 20 -3 21 -8 18 -104 -3 -84
-1 -102 12 -107 23 -9 27 5 33 106 l6 92 141 -2 141 -2 3 -93 c2 -51 7 -97 12
-102 21 -21 30 10 30 108 0 95 2 104 20 109 16 4 20 -1 24 -27 6 -34 20 -247
18 -258 -1 -3 5 -11 12 -17 30 -25 34 11 20 174 -19 228 -18 394 1 401 21 8
19 61 -2 72 -10 6 -37 13 -60 17 l-43 7 0 109 0 110 43 18 c68 29 81 87 30
134 -29 26 -145 47 -253 46 -52 -1 -104 -3 -115 -5z m209 -160 l47 -7 -3 -119
-3 -119 -131 -2 -132 -2 -7 114 c-3 62 -3 117 2 121 17 17 147 24 227 14z
m-277 -372 c8 -5 10 -30 6 -84 -5 -65 -9 -79 -25 -84 -11 -3 -21 -4 -22 -2 -1
1 0 42 2 91 4 86 10 98 39 79z m413 -82 c0 -49 -4 -90 -9 -90 -35 0 -41 13
-41 89 0 83 3 91 32 91 16 0 18 -9 18 -90z m-92 3 l3 -73 -142 0 -141 0 6 23
c3 12 6 45 6 73 l0 51 133 -1 132 -1 3 -72z m-50 -89 l52 -7 0 -39 0 -39 -137
3 -138 3 0 35 c0 33 2 35 40 41 58 9 122 10 183 3z m-268 -39 c0 -18 -5 -25
-19 -25 -28 0 -37 21 -16 37 27 19 35 16 35 -12z m394 19 c27 -10 20 -44 -9
-44 -20 0 -25 5 -25 25 0 26 7 29 34 19z"/>
<path d="M3378 5684 c-34 -18 -41 -74 -9 -74 25 0 30 -51 36 -360 7 -374 12
-500 19 -507 14 -14 21 12 22 80 5 232 14 460 18 464 5 6 17 -190 20 -329 1
-59 5 -110 9 -114 16 -16 22 12 23 104 4 208 14 473 18 480 2 4 0 32 -6 61 -5
30 -7 70 -3 88 l6 33 569 0 c449 0 570 -3 571 -12 0 -7 3 -130 5 -273 7 -419
9 -473 17 -481 16 -16 22 12 23 109 3 136 15 329 21 324 4 -4 11 -196 16 -449
2 -72 9 -99 23 -85 7 7 12 133 19 507 6 309 11 360 36 360 32 0 25 52 -10 73
-27 16 -85 17 -723 17 -595 -1 -697 -3 -720 -16z m99 -161 c-3 -10 -5 -2 -5
17 0 19 2 27 5 18 2 -10 2 -26 0 -35z m1250 10 c-3 -10 -5 -4 -5 12 0 17 2 24
5 18 2 -7 2 -21 0 -30z m-1259 -110 l-4 -28 -8 28 c-5 15 -5 39 0 55 l8 27 4
-27 c2 -16 2 -40 0 -55z m1282 27 c0 -14 -5 -32 -10 -40 -7 -11 -10 1 -10 40
0 39 3 51 10 40 5 -8 10 -26 10 -40z m-1273 -127 c-3 -10 -5 -4 -5 12 0 17 2
24 5 18 2 -7 2 -21 0 -30z m1250 0 c-3 -10 -5 -4 -5 12 0 17 2 24 5 18 2 -7 2
-21 0 -30z"/>
<path d="M5552 5686 c-5 -6 -48 -77 -96 -159 -48 -81 -97 -154 -109 -162 -17
-12 -55 -15 -175 -15 -151 0 -153 0 -179 -26 -29 -29 -29 -14 5 -242 10 -67
23 -127 28 -132 5 -5 83 1 193 15 102 14 186 23 188 22 1 -2 5 -35 9 -74 4
-39 10 -76 14 -83 5 -8 59 3 191 39 100 28 187 55 191 59 5 5 3 13 -4 19 -21
16 -283 83 -326 83 -38 0 -40 2 -46 38 -10 60 -7 157 5 169 8 8 26 5 67 -10
81 -29 140 -19 197 34 35 33 52 62 93 162 63 155 84 221 80 249 -3 23 -5 23
-160 24 -106 1 -161 -2 -166 -10z m-353 -526 c91 -17 173 -33 182 -36 17 -5
33 -82 20 -96 -8 -8 -342 -50 -349 -43 -5 5 -31 165 -32 193 0 15 -14 17 179
-18z m405 -186 c56 -15 105 -30 109 -34 5 -4 -43 -21 -105 -38 -166 -45 -152
-48 -158 26 -3 35 -3 65 -1 68 10 10 61 2 155 -22z"/>
<path d="M2761 5599 c-46 -4 -86 -10 -89 -14 -3 -3 -10 -75 -16 -161 l-11
-156 22 -9 c13 -5 52 -11 88 -15 52 -5 65 -10 65 -24 0 -9 -20 -58 -45 -109
-55 -113 -63 -156 -41 -215 22 -58 65 -80 147 -74 86 6 120 45 121 136 0 29
-14 72 -45 140 -69 148 -69 138 10 146 38 4 79 10 92 13 26 6 26 -9 5 255 l-6
77 -67 6 c-36 3 -84 7 -106 9 -22 2 -78 0 -124 -5z"/>
<path d="M3531 4585 c-30 -26 -31 -30 -31 -106 l0 -79 -39 6 c-26 4 -60 -1
-110 -17 -86 -28 -116 -51 -101 -79 6 -11 14 -20 18 -20 4 0 8 -91 10 -203 2
-163 6 -204 17 -213 8 -6 15 -23 15 -38 0 -27 1 -27 58 -24 54 3 57 4 60 31
l3 27 739 0 739 0 3 -27 c3 -27 6 -28 61 -31 56 -3 57 -3 57 24 0 15 6 32 14
38 12 9 15 52 18 213 2 112 6 203 10 203 4 0 12 9 18 20 15 28 -14 51 -100 79
-51 16 -82 21 -111 16 l-39 -7 0 79 c0 73 -2 82 -26 104 l-26 24 -285 0 -285
0 -24 -28 -24 -28 -24 28 -24 28 -280 3 -279 3 -32 -26z"/>
<path d="M380 4380 c0 -11 7 -20 15 -20 11 0 15 -11 15 -40 0 -22 5 -40 10
-40 6 0 10 -91 10 -254 0 -183 3 -257 12 -262 6 -4 25 8 45 29 l33 37 0 225 0
225 690 0 690 0 0 -228 0 -228 33 -32 c18 -18 38 -32 45 -32 9 0 12 64 12 260
0 167 4 260 10 260 6 0 10 18 10 40 0 29 4 40 15 40 8 0 15 9 15 20 0 20 -7
20 -830 20 -823 0 -830 0 -830 -20z m100 -325 c0 -143 -4 -225 -10 -225 -6 0
-10 82 -10 225 0 143 4 225 10 225 6 0 10 -82 10 -225z m1480 -6 c0 -151 -3
-228 -10 -224 -6 4 -10 92 -10 231 0 143 4 224 10 224 6 0 10 -84 10 -231z"/>
<path d="M2625 4365 c-22 -14 -47 -24 -55 -23 -8 1 -32 -1 -53 -6 -30 -6 -43
-3 -64 13 -17 14 -40 21 -70 21 -38 0 -50 -5 -79 -34 -31 -31 -34 -40 -34 -90
0 -51 2 -57 26 -66 35 -14 147 -13 178 1 15 7 26 22 29 38 2 18 6 11 11 -26 5
-29 12 -53 16 -53 14 0 20 13 10 25 -5 6 -12 29 -16 52 -6 37 -4 42 17 48 13
4 38 13 56 21 50 22 103 5 214 -71 73 -50 98 -73 102 -93 8 -38 -151 -442
-174 -442 -9 0 -19 3 -23 7 -10 11 -36 12 -36 2 0 -5 -7 -9 -15 -9 -10 0 -15
-10 -15 -30 l0 -30 125 0 125 0 0 29 c0 27 -3 30 -39 33 l-39 3 78 203 c43
112 84 209 90 217 6 8 10 26 8 42 -2 21 -11 30 -33 37 -41 14 -212 132 -251
173 -18 18 -36 33 -40 33 -5 0 -27 -12 -49 -25z m-15 -55 c-8 -5 -19 -10 -25
-10 -5 0 -3 5 5 10 8 5 20 10 25 10 6 0 3 -5 -5 -10z m190 -66 c0 -3 -20 9
-45 26 -25 17 -45 33 -45 36 0 3 20 -9 45 -26 25 -17 45 -33 45 -36z m60 -41
c0 -7 -39 17 -46 28 -3 6 5 3 20 -6 14 -10 26 -19 26 -22z m3 -322 c-43 -111
-81 -201 -86 -201 -4 0 -1 15 6 33 8 17 44 110 82 205 37 95 69 171 72 169 2
-3 -31 -95 -74 -206z"/>
<path d="M5502 4028 c-83 -9 -154 -33 -180 -61 -32 -35 -35 -82 -13 -184 28
-122 28 -173 1 -180 -25 -7 -29 -63 -5 -63 20 0 20 6 -20 -310 -20 -151 -33
-281 -30 -289 16 -41 32 33 65 296 l35 286 80 -4 c44 -2 140 -3 213 -1 105 2
132 0 132 -10 0 -47 73 -565 80 -572 23 -23 20 41 -14 306 l-36 283 21 16 c25
19 19 54 -11 64 -16 5 -18 13 -13 63 3 31 11 79 19 106 18 65 18 156 -1 182
-35 51 -194 87 -323 72z m231 -53 c26 -9 54 -27 62 -38 17 -24 20 -102 5 -112
-5 -3 -59 0 -120 6 -98 11 -244 5 -332 -13 -10 -2 -13 12 -13 56 0 70 16 86
105 111 69 19 225 14 293 -10z m40 -190 c28 -12 20 -28 -10 -21 -60 14 -271
18 -338 7 -63 -11 -87 -9 -72 6 16 15 93 22 242 19 88 -2 168 -6 178 -11z
m-78 -45 c38 -6 73 -14 76 -18 4 -4 5 -28 2 -54 l-6 -48 -197 0 c-197 0 -198
0 -204 23 -3 12 -6 36 -6 54 0 31 1 32 58 38 31 4 62 8 67 10 21 7 143 4 210
-5z"/>
<path d="M776 3811 c-4 -6 -2 -19 3 -30 13 -23 14 -22 -126 -112 -82 -52 -117
-69 -144 -69 -22 0 -42 -7 -52 -18 -21 -23 -22 -71 -3 -98 9 -12 17 -59 21
-115 6 -92 72 -1366 76 -1484 l3 -60 -76 -6 c-86 -7 -98 -12 -98 -40 0 -31 41
-39 189 -39 163 0 196 7 196 40 0 29 -24 38 -108 39 -36 1 -59 6 -62 14 -2 6
-11 145 -19 307 -21 391 -54 1035 -61 1185 -3 66 -8 138 -11 161 l-5 41 147
94 c81 52 151 95 154 97 4 2 11 -5 14 -14 5 -12 -2 -25 -21 -40 l-27 -21 24
-102 c19 -81 27 -101 41 -101 27 0 125 39 151 59 l22 18 -52 89 c-47 81 -54
89 -80 87 -26 -2 -31 2 -52 55 -26 66 -35 78 -44 63z m-278 -242 c-20 -15 -28
-30 -28 -52 0 -24 -3 -28 -10 -17 -16 25 -11 58 12 74 35 24 58 19 26 -5z"/>
<path d="M4200 3483 c-211 -6 -449 -36 -501 -63 -13 -8 -19 -21 -19 -45 0 -28
5 -37 30 -50 16 -8 50 -18 75 -22 55 -7 53 7 20 -229 -33 -232 -33 -224 9
-224 l33 0 11 73 c7 39 19 126 27 192 23 181 17 168 76 163 27 -3 52 -8 56
-11 6 -6 -22 -240 -33 -279 -5 -15 1 -18 34 -18 l39 0 17 128 c9 70 19 136 21
147 4 19 12 20 257 19 l253 -1 6 -44 c4 -24 12 -90 19 -146 l12 -103 40 0 c38
0 39 1 34 28 -14 70 -37 265 -31 270 3 3 29 6 57 7 l52 0 27 -195 c15 -107 28
-203 28 -212 1 -14 10 -18 36 -18 43 0 43 -10 10 235 -14 104 -24 193 -22 199
3 6 31 17 64 24 70 14 83 25 83 70 0 28 -5 35 -34 47 -61 26 -220 45 -448 55
-123 5 -227 9 -233 8 -5 -1 -53 -3 -105 -5z"/>
<path d="M1895 3353 c-33 -14 -66 -30 -72 -35 -10 -8 -13 -101 -13 -404 l0
-394 55 0 55 0 0 35 c0 32 2 35 30 35 l30 0 0 150 0 150 655 0 655 0 0 -149 0
-150 33 -3 c28 -3 32 -6 32 -33 0 -29 1 -30 53 -33 l52 -3 -2 402 -3 401 -70
29 -70 28 -680 0 -680 -1 -60 -25z m1395 -258 l0 -105 -655 0 -655 0 0 105 0
105 655 0 655 0 0 -105z"/>
<path d="M1050 3285 c0 -8 7 -15 15 -15 13 0 15 -97 17 -787 l3 -788 32 -3
c31 -3 32 -2 35 40 2 36 7 44 26 46 20 3 22 8 22 73 l0 69 100 0 100 0 0 -69
c0 -65 2 -70 23 -73 18 -2 23 -10 25 -46 3 -42 4 -43 35 -40 l32 3 3 788 c2
690 4 787 17 787 8 0 15 7 15 15 0 13 -34 15 -250 15 -216 0 -250 -2 -250 -15z"/>
<path d="M4424 2560 c-17 -7 -24 -28 -43 -134 -13 -69 -25 -135 -28 -146 -5
-19 0 -20 60 -20 57 0 68 -3 81 -22 35 -49 12 -137 -55 -213 -18 -20 -28 -39
-24 -43 9 -9 251 -9 260 0 4 4 -10 28 -30 55 -64 84 -78 138 -50 193 15 29 19
30 81 30 l66 0 -6 38 c-45 246 -48 260 -70 266 -32 9 -218 6 -242 -4z"/>
<path d="M5075 2544 c-23 -24 -25 -35 -25 -115 l0 -89 -49 0 c-43 0 -52 -4
-80 -35 -39 -45 -40 -85 -5 -136 24 -35 26 -47 31 -189 5 -131 8 -152 24 -160
15 -8 17 -19 12 -65 l-6 -55 31 0 c28 0 32 4 47 51 12 37 20 48 28 40 17 -17
45 -13 57 9 10 19 21 20 245 20 224 0 235 -1 247 -20 16 -25 58 -27 59 -2 0 9
10 -9 22 -40 19 -52 24 -58 49 -58 28 0 28 1 28 60 0 44 4 60 14 60 15 0 26
88 26 223 0 77 3 93 25 125 32 47 33 97 1 137 -19 24 -33 30 -77 35 l-54 5 -5
93 c-7 140 12 132 -337 132 l-284 0 -24 -26z"/>
<path d="M1938 2358 l-78 -61 0 -304 0 -303 30 0 30 0 0 80 0 80 525 0 525 0
0 -80 0 -80 30 0 30 0 0 303 0 302 -78 62 -77 63 -430 -1 -430 0 -77 -61z m40
-223 c4 -77 -2 -99 -33 -119 l-25 -16 0 100 0 101 28 -3 c26 -3 27 -6 30 -63z
m882 0 l0 -65 -415 0 -415 0 0 65 0 65 415 0 415 0 0 -65z m110 -35 l0 -100
-24 15 c-29 19 -36 42 -36 116 0 62 3 69 37 69 23 0 23 -2 23 -100z"/>
<path d="M3455 2231 c-71 -20 -138 -40 -148 -44 -16 -6 -17 -24 -15 -239 l3
-233 30 0 30 0 5 200 5 200 103 3 102 3 0 -145 c0 -91 4 -147 11 -151 5 -4 21
-4 35 -1 l24 6 0 145 0 145 95 0 95 0 2 -202 3 -203 23 -3 c49 -7 52 5 52 219
0 110 2 199 4 199 1 0 33 11 70 24 l66 24 0 -173 c0 -167 1 -173 21 -178 48
-13 49 -9 49 224 l0 219 -267 -1 -268 -1 -130 -37z"/>
<path d="M4501 1570 c-49 -21 -52 -32 -45 -215 l6 -170 -27 -23 c-25 -22 -27
-28 -21 -74 4 -27 1 -155 -5 -284 -7 -129 -9 -237 -5 -241 17 -17 24 32 31
210 10 244 23 292 24 85 1 -143 9 -193 25 -152 3 9 6 94 6 190 l0 174 185 0
185 0 2 -187 c4 -240 21 -249 28 -16 l5 168 13 -230 c11 -209 19 -264 35 -237
4 5 0 114 -7 243 -8 129 -12 257 -9 286 5 45 3 53 -16 65 -20 12 -21 20 -21
194 0 234 15 218 -204 221 -91 2 -171 -2 -185 -7z m359 -311 l0 -76 -46 -7
c-60 -8 -218 -8 -278 0 l-46 7 0 76 0 76 185 0 185 0 0 -76z"/>
<path d="M5490 1553 c-67 -11 -130 -35 -140 -53 -13 -24 -13 -197 0 -205 16
-10 12 -121 -5 -135 -12 -10 -14 -62 -15 -306 0 -193 3 -294 10 -294 6 0 11
86 12 243 l3 242 2 -207 c3 -176 6 -208 18 -208 13 0 15 32 15 215 l0 215 88
-7 c109 -10 144 -10 260 0 l92 8 0 -216 c0 -134 4 -215 10 -215 6 0 11 84 13
218 l2 217 3 -252 c1 -161 6 -253 12 -253 6 0 10 102 10 288 -1 239 -3 290
-16 307 -12 16 -13 46 -8 185 l7 165 -28 13 c-75 34 -246 52 -345 35z m153
-74 c29 -47 -32 -101 -73 -64 -23 20 -25 37 -9 66 13 24 66 23 82 -2z m-43
-250 c48 0 109 7 140 16 86 25 85 26 85 -25 0 -43 -1 -44 -40 -53 -52 -12
-264 -14 -337 -4 l-58 8 0 49 0 48 63 -20 c42 -13 89 -20 147 -19z"/>
<path d="M576 1375 c-12 -13 -16 -37 -16 -109 l0 -93 -67 -17 c-83 -20 -113
-48 -113 -107 0 -40 20 -69 64 -94 22 -12 26 -100 12 -277 l-9 -116 1001 0
c767 -1 1001 2 1005 11 2 7 -1 71 -8 144 -12 136 -7 234 13 241 52 17 80 77
61 132 -13 36 -42 53 -121 70 l-58 13 0 97 c0 61 -4 100 -12 108 -16 16 -549
17 -565 1 -8 -8 -17 -8 -32 0 -14 8 -104 10 -293 8 -325 -5 -239 -5 -569 0
-244 3 -279 2 -293 -12z"/>
<path d="M2838 1359 c-36 -18 -50 -39 -28 -39 6 0 10 -133 10 -380 l0 -380 25
0 25 0 0 340 c0 296 2 340 15 340 13 0 15 -37 15 -275 l0 -275 25 0 25 0 0
275 0 275 503 -2 502 -3 3 -272 c2 -264 3 -273 22 -273 19 0 20 9 22 272 2
206 6 272 16 276 9 3 12 -69 12 -337 l0 -341 25 0 25 0 0 380 c0 247 4 380 10
380 26 0 5 27 -33 43 -39 15 -92 17 -612 17 -548 -1 -571 -2 -607 -21z"/>
<path d="M3122 200 c-6 -11 -23 -22 -37 -26 -30 -7 -30 -7 -8 -55 18 -41 47
-55 86 -40 30 12 32 15 41 64 6 31 4 37 -10 37 -10 0 -27 9 -39 20 -20 19 -21
19 -33 0z m8 -45 c0 -8 -7 -15 -15 -15 -8 0 -15 7 -15 15 0 8 7 15 15 15 8 0
15 -7 15 -15z m50 5 c0 -5 -5 -10 -11 -10 -5 0 -7 5 -4 10 3 6 8 10 11 10 2 0
4 -4 4 -10z"/>
<path d="M2430 181 c0 -5 -9 -13 -21 -16 -31 -10 -21 -49 14 -53 26 -3 27 -1
27 37 0 23 -4 41 -10 41 -5 0 -10 -4 -10 -9z m0 -46 c0 -8 -4 -15 -10 -15 -5
0 -10 7 -10 15 0 8 5 15 10 15 6 0 10 -7 10 -15z"/>
<path d="M2586 157 c-5 -21 -6 -41 -2 -44 12 -12 17 5 14 43 l-4 39 -8 -38z"/>
<path d="M2850 181 c0 -5 -9 -13 -21 -16 -30 -10 -22 -49 12 -53 23 -3 26 1
27 32 1 19 -3 38 -8 41 -6 3 -10 2 -10 -4z m0 -40 c0 -6 -4 -13 -10 -16 -5 -3
-10 1 -10 9 0 9 5 16 10 16 6 0 10 -4 10 -9z"/>
<path d="M2905 167 c-10 -38 0 -57 30 -57 20 0 25 5 25 25 0 15 -7 28 -17 32
-10 4 -21 11 -25 17 -4 5 -10 -2 -13 -17z m43 -28 c-2 -6 -8 -10 -13 -10 -5 0
-11 4 -13 10 -2 6 4 11 13 11 9 0 15 -5 13 -11z"/>
<path d="M3257 176 c-3 -8 -3 -26 1 -41 7 -25 8 -25 18 14 9 32 8 41 -1 41 -7
0 -15 -6 -18 -14z"/>
<path d="M3560 150 c0 -22 5 -40 10 -40 6 0 10 5 10 11 0 8 4 8 13 0 11 -8 14
-5 14 18 0 20 -4 28 -14 24 -7 -3 -13 2 -13 11 0 9 -4 16 -10 16 -5 0 -10 -18
-10 -40z"/>
<path d="M2464 156 c-9 -24 3 -46 26 -46 17 0 21 5 18 27 -3 31 -34 44 -44 19z"/>
<path d="M2527 162 c-12 -18 1 -47 22 -50 19 -3 21 0 18 25 -4 27 -29 43 -40
25z"/>
<path d="M2614 157 c-2 -7 -3 -24 -1 -37 3 -19 10 -25 28 -25 20 0 24 6 27 35
3 32 0 36 -23 38 -14 1 -28 -4 -31 -11z m36 -16 c0 -6 -4 -13 -10 -16 -5 -3
-10 1 -10 9 0 9 5 16 10 16 6 0 10 -4 10 -9z"/>
<path d="M2680 139 c0 -16 5 -29 10 -29 6 0 10 9 10 20 0 27 17 25 23 -2 4
-16 5 -13 4 7 -2 24 -7 30 -24 31 -19 1 -23 -4 -23 -27z"/>
<path d="M2751 153 c-12 -24 1 -46 25 -41 13 2 19 12 19 28 0 30 -30 39 -44
13z"/>
<path d="M2973 132 c2 -52 21 -55 37 -6 12 35 6 62 -6 30 -6 -15 -7 -15 -19 1
-12 16 -13 12 -12 -25z"/>
<path d="M3303 163 c-15 -6 -18 -53 -3 -53 6 0 10 9 10 20 0 11 5 20 10 20 6
0 10 5 10 10 0 11 -7 12 -27 3z"/>
<path d="M3341 157 c-17 -21 -3 -49 23 -45 15 2 21 10 21 28 0 28 -26 38 -44
17z m36 -33 c-3 -3 -12 -4 -19 -1 -8 3 -5 6 6 6 11 1 17 -2 13 -5z"/>
<path d="M3404 156 c-9 -24 3 -46 26 -46 17 0 21 5 18 27 -3 31 -34 44 -44 19z"/>
<path d="M3467 164 c-11 -11 -8 -74 3 -74 6 0 10 4 10 9 0 5 9 11 21 14 28 7
23 51 -6 55 -12 2 -24 0 -28 -4z m33 -30 c0 -8 -4 -12 -10 -9 -5 3 -10 10 -10
16 0 5 5 9 10 9 6 0 10 -7 10 -16z"/>
<path d="M3530 141 c0 -17 5 -31 10 -31 6 0 10 11 10 24 0 14 -4 28 -10 31 -6
4 -10 -7 -10 -24z"/>
<path d="M3661 157 c-6 -8 -9 -22 -5 -31 7 -17 54 -23 54 -6 0 6 -7 10 -16 8
-10 -2 -19 3 -22 11 -3 10 1 12 17 8 14 -3 21 -1 18 6 -6 18 -32 20 -46 4z"/>
<path d="M3724 155 c-4 -8 -4 -22 0 -30 7 -18 42 -20 49 -2 4 9 8 9 15 -1 7
-11 11 -8 17 10 l8 23 4 -22 c2 -13 9 -23 14 -23 5 0 9 10 10 23 0 21 1 21 11
-3 9 -21 12 -22 15 -7 8 32 -4 45 -41 44 -24 -1 -36 -6 -36 -16 0 -11 -3 -11
-18 2 -23 21 -41 22 -48 2z m36 -13 c0 -13 -12 -22 -22 -16 -10 6 -1 24 13 24
5 0 9 -4 9 -8z"/>
</g>
</svg>
