<?xml version="1.0" standalone="no"?>
<!DOCTYPE svg PUBLIC "-//W3C//DTD SVG 20010904//EN"
 "http://www.w3.org/TR/2001/REC-SVG-20010904/DTD/svg10.dtd">
<svg version="1.0" xmlns="http://www.w3.org/2000/svg"
 width="1019.000000pt" height="1024.000000pt" viewBox="0 0 1019.000000 1024.000000"
 preserveAspectRatio="xMidYMid meet">

<g transform="translate(0.000000,1024.000000) scale(0.100000,-0.100000)"
fill="#000000" stroke="none">
<path d="M5465 10214 c-122 -22 -247 -57 -517 -146 l-248 -81 0 -51 c0 -63
-20 -96 -58 -96 -32 0 -87 31 -101 58 -10 19 -11 19 -78 1 -37 -11 -97 -24
-133 -30 -35 -5 -84 -19 -109 -30 -41 -18 -43 -21 -37 -51 11 -57 54 -105 140
-156 261 -157 324 -453 186 -872 -58 -177 -83 -224 -177 -322 -45 -48 -86
-100 -89 -115 -12 -44 12 -130 70 -253 30 -63 62 -132 70 -152 33 -83 77 -76
302 49 204 113 341 175 509 231 83 28 181 62 219 76 38 15 71 25 73 22 5 -5
-40 -122 -70 -181 -14 -28 -57 -82 -96 -122 -38 -40 -77 -86 -86 -102 -27 -53
0 -135 143 -429 32 -67 81 -58 282 54 228 127 340 177 559 250 108 36 235 86
283 110 99 52 214 146 274 225 56 74 63 88 80 177 8 42 32 129 53 192 56 163
71 245 78 410 4 112 2 165 -11 233 -53 280 -209 587 -329 648 -36 19 -52 21
-127 16 -90 -6 -294 -55 -444 -107 -50 -16 -93 -27 -97 -23 -3 5 -16 40 -29
78 -12 39 -53 133 -90 210 -76 155 -146 245 -215 276 -47 22 -73 22 -180 3z
m192 -63 c43 -31 112 -128 160 -226 37 -74 98 -229 107 -272 7 -30 6 -31 -44
-48 -28 -9 -52 -15 -54 -14 -1 2 -14 45 -29 94 -62 214 -135 358 -198 390 -24
13 -51 16 -108 13 -90 -4 -163 -36 -276 -120 -99 -74 -388 -364 -414 -415 -32
-65 -35 -118 -16 -290 16 -146 16 -169 2 -308 -20 -193 -13 -239 52 -370 57
-116 104 -174 169 -213 43 -25 56 -27 152 -27 98 0 110 2 174 33 50 23 90 54
147 111 44 43 79 74 79 69 0 -6 -9 -51 -21 -100 l-21 -90 -57 -25 c-31 -14
-141 -54 -246 -89 -188 -64 -367 -146 -620 -284 -60 -33 -120 -60 -132 -60
-18 0 -32 21 -81 124 -56 117 -82 183 -96 249 -6 24 3 38 78 117 95 100 130
164 190 344 46 140 76 296 76 400 0 221 -109 426 -279 525 -36 22 -73 47 -82
58 -20 22 -42 63 -37 69 4 4 74 21 199 48 l77 17 27 -25 c34 -31 96 -50 137
-41 36 8 66 53 74 115 l6 45 251 83 c303 99 459 138 563 141 42 1 58 -4 91
-28z m961 -425 c105 -55 230 -285 299 -551 22 -85 26 -121 26 -245 0 -167 -21
-287 -78 -448 -19 -53 -42 -132 -50 -174 -8 -43 -21 -93 -29 -111 -19 -46
-136 -169 -211 -222 -90 -64 -145 -88 -369 -165 -231 -78 -326 -120 -541 -239
-162 -90 -223 -117 -238 -102 -8 8 -24 42 -113 241 -18 41 -36 94 -40 117 -6
41 -6 42 77 130 93 98 125 155 183 325 71 207 98 390 76 519 -33 197 -124 335
-285 432 -70 42 -117 99 -98 118 5 5 62 20 127 34 65 14 122 28 128 31 5 3 22
-5 36 -19 15 -13 37 -30 49 -36 27 -14 88 -14 114 -1 27 15 49 63 49 110 0 24
5 42 13 44 6 2 109 35 227 74 242 80 368 115 485 136 105 19 130 19 163 2z"/>
<path d="M4780 9805 c-19 -13 -59 -31 -88 -40 -46 -14 -56 -21 -69 -53 -24
-54 -21 -128 6 -180 12 -24 25 -42 27 -39 3 2 14 42 25 88 24 99 39 126 100
173 44 33 70 77 46 75 -7 0 -28 -11 -47 -24z"/>
<path d="M4675 9088 c-1 -134 -2 -147 -29 -213 -35 -86 -44 -156 -23 -174 21
-17 53 18 62 67 3 21 18 70 31 111 23 65 25 83 19 157 -5 58 -15 101 -34 140
l-26 56 0 -144z"/>
<path d="M4630 8583 c-8 -2 -30 -30 -48 -61 -30 -53 -55 -83 -156 -189 -60
-64 -26 -52 55 20 39 34 105 87 146 118 89 67 104 86 77 106 -17 13 -44 15
-74 6z"/>
<path d="M4665 8379 c-140 -105 -189 -165 -211 -253 -7 -29 -6 -29 28 -23 63
10 224 93 277 142 76 71 102 143 63 178 -34 31 -72 20 -157 -44z"/>
<path d="M6428 9620 c-127 -44 -310 -182 -494 -371 -153 -159 -171 -203 -152
-376 13 -108 14 -193 7 -478 l-4 -150 34 -75 c106 -230 193 -298 368 -287 109
6 203 50 290 134 71 68 94 111 122 220 13 51 57 154 116 275 99 202 145 335
145 420 0 106 -78 382 -150 533 -45 94 -95 150 -148 164 -51 15 -68 13 -134
-9z"/>
<path d="M5776 9368 c-15 -12 -56 -31 -90 -43 -69 -25 -86 -49 -94 -126 -3
-32 2 -60 18 -97 12 -29 26 -52 31 -52 4 0 13 26 19 58 13 66 35 130 53 152 6
8 33 32 60 53 27 22 47 47 47 58 0 24 -8 24 -44 -3z"/>
<path d="M5666 8685 c7 -122 -6 -198 -51 -305 -28 -67 -31 -89 -12 -114 16
-22 42 -12 55 22 52 143 64 202 60 299 -4 80 -10 108 -32 153 l-27 55 7 -110z"/>
<path d="M5562 8063 c-28 -43 -80 -107 -116 -143 -36 -36 -66 -68 -66 -72 0
-17 39 9 99 65 35 32 97 83 137 113 41 30 78 63 83 73 14 25 -5 41 -49 41 -35
0 -40 -4 -88 -77z"/>
<path d="M5609 7958 c-134 -102 -179 -155 -205 -245 -14 -50 -14 -56 1 -80 15
-22 22 -25 59 -21 59 7 224 82 287 132 73 57 111 114 116 174 6 76 -21 109
-103 127 -29 5 -44 -3 -155 -87z"/>
<path d="M2355 10173 c-22 -5 -990 -326 -1659 -550 -236 -79 -452 -156 -480
-173 -66 -37 -117 -91 -152 -160 -27 -51 -29 -62 -28 -165 2 -127 -17 -69 214
-667 126 -327 155 -396 167 -387 7 7 17 9 21 5 4 -4 -4 -16 -18 -27 l-25 -19
35 -31 c19 -17 173 -100 343 -185 280 -140 312 -154 360 -154 73 1 137 26 512
203 182 85 681 320 1110 521 429 202 788 376 798 387 28 34 22 73 -17 107 -19
17 -43 33 -54 36 -13 4 -24 23 -32 52 -16 57 -76 150 -121 188 -51 44 -94 58
-163 55 -57 -3 -63 -1 -95 29 -18 18 -44 35 -57 38 -16 4 -31 21 -43 48 -83
179 -165 361 -242 532 -98 217 -133 268 -214 305 -38 17 -112 23 -160 12z
m146 -116 c63 -34 95 -86 199 -327 51 -118 105 -242 120 -275 14 -33 32 -76
40 -95 7 -19 17 -39 22 -44 12 -15 10 -26 -5 -26 -9 0 -66 123 -147 313 -73
171 -144 331 -157 353 -32 56 -91 96 -151 101 -41 4 -157 -33 -922 -290 -1287
-434 -1227 -412 -1298 -472 -55 -46 -77 -164 -50 -273 10 -44 151 -439 252
-711 26 -68 45 -131 43 -140 -5 -21 -5 -21 -167 420 -76 207 -145 407 -155
445 -29 117 -5 218 66 278 71 60 63 57 1298 472 648 218 887 294 921 294 30 0
63 -9 91 -23z m-66 -312 c53 -31 76 -74 191 -368 75 -191 85 -223 79 -258 -4
-22 -10 -38 -13 -35 -3 3 -53 131 -112 283 -125 323 -143 353 -218 353 -80 0
-40 14 -1232 -419 -759 -275 -744 -269 -767 -296 -47 -53 -32 -113 121 -510
41 -104 45 -123 35 -142 -7 -13 -16 -20 -20 -16 -4 5 -34 80 -67 168 -147 393
-157 430 -128 500 21 50 49 64 316 159 36 13 310 112 610 221 300 108 601 217
670 242 255 92 296 106 360 124 89 24 126 23 175 -6z m578 -520 c20 -14 37
-28 37 -32 0 -3 -14 -21 -31 -41 -38 -43 -68 -107 -69 -144 0 -34 -3 -34 -47
-7 -22 14 -58 23 -100 27 l-65 5 6 50 c15 111 74 165 181 166 38 1 59 -5 88
-24z m221 -67 c73 -22 158 -132 180 -235 6 -27 2 -37 -27 -70 l-35 -38 -127
-5 c-125 -5 -127 -6 -150 -34 -25 -32 -26 -31 -40 44 -4 19 -14 48 -22 64 -8
16 -15 55 -15 87 0 145 103 226 236 187z m-629 -87 c22 -10 49 -28 60 -40 l19
-22 -32 -26 c-41 -32 -81 -110 -89 -174 -3 -27 -7 -49 -9 -49 -2 0 -25 14 -51
30 -53 34 -102 50 -151 50 l-32 0 6 43 c14 102 49 157 119 188 51 24 109 24
160 0z m280 -117 c57 -37 94 -94 107 -164 13 -68 5 -91 -40 -125 -22 -16 -48
-21 -139 -25 -97 -4 -116 -8 -143 -28 -17 -13 -33 -22 -34 -20 -46 53 -41 237
7 310 50 75 169 100 242 52z m-679 -55 c18 -11 39 -31 49 -45 16 -25 16 -25
-34 -70 -50 -45 -81 -104 -96 -187 -8 -42 -15 -45 -32 -18 -17 27 -90 67 -137
76 l-39 6 5 62 c6 66 32 129 67 161 28 26 108 47 151 40 19 -3 49 -14 66 -25z
m241 -130 c59 -29 100 -82 125 -162 17 -58 18 -72 8 -92 -21 -40 -75 -58 -185
-62 -117 -5 -148 -15 -177 -56 l-22 -30 -18 54 c-41 119 15 309 103 352 47 23
114 21 166 -4z m-724 -33 c32 -13 97 -78 97 -96 0 -5 -9 -14 -20 -20 -34 -18
-77 -87 -101 -158 -12 -37 -23 -69 -26 -71 -2 -3 -20 11 -41 31 -48 46 -75 59
-136 67 l-51 6 3 35 c14 160 147 260 275 206z m272 -141 c66 -32 122 -118 146
-228 12 -55 11 -58 -11 -82 -32 -34 -78 -45 -191 -45 -84 0 -102 -3 -144 -25
-26 -14 -49 -24 -51 -23 -1 2 -8 34 -14 72 -22 139 35 292 125 332 41 18 100
17 140 -1z m-740 -59 c28 -13 59 -33 69 -45 20 -21 19 -22 -17 -59 -44 -45
-85 -130 -93 -194 -7 -52 -17 -60 -34 -27 -18 33 -98 78 -163 90 l-59 12 5 54
c16 152 156 233 292 169z m260 -97 c22 -6 54 -21 71 -34 43 -33 92 -131 103
-206 l9 -64 -36 -38 c-59 -61 -103 -77 -216 -77 -77 0 -105 -4 -136 -20 l-40
-20 -7 27 c-5 16 -8 71 -8 123 0 150 47 259 128 299 47 24 75 26 132 10z
m-740 -80 c17 -9 43 -31 59 -48 l28 -30 -34 -30 c-44 -38 -83 -110 -99 -184
-14 -68 -25 -73 -123 -63 -64 7 -126 36 -126 58 1 48 24 157 41 198 49 114
159 157 254 99z m258 -110 c90 -25 166 -142 175 -271 5 -68 4 -68 -31 -102
-47 -44 -114 -60 -222 -54 -86 6 -157 30 -188 65 -16 18 -16 26 -3 103 36 203
134 297 269 259z"/>
<path d="M8734 10085 c-13 -13 -27 -38 -30 -55 -4 -16 -10 -30 -14 -30 -4 0
-28 11 -51 25 -24 14 -56 25 -71 25 -36 0 -68 -32 -68 -69 0 -15 9 -40 20 -54
26 -33 26 -34 -12 -50 -40 -17 -72 -52 -65 -70 3 -7 23 -19 45 -25 22 -7 45
-19 52 -27 10 -12 17 -10 51 12 30 20 52 26 95 26 63 0 100 -21 124 -69 14
-29 15 -30 98 -28 83 1 84 1 99 31 23 49 78 65 150 44 32 -9 33 -8 52 35 36
80 116 93 194 32 33 -26 42 -29 65 -19 15 5 38 12 52 14 l25 3 -28 12 c-16 7
-50 12 -77 12 l-49 0 1 50 c2 64 -20 90 -75 90 -22 0 -56 -10 -79 -22 -33 -19
-40 -20 -48 -8 -6 8 -10 25 -10 38 0 37 -52 82 -95 82 -38 0 -103 -28 -124
-54 -20 -23 -27 -20 -74 29 -38 39 -49 45 -86 45 -31 0 -48 -6 -67 -25z"/>
<path d="M8227 9960 c-14 -11 -29 -29 -32 -40 -6 -18 -12 -19 -59 -14 -66 8
-92 -5 -116 -59 -18 -39 -21 -41 -64 -42 -60 -1 -97 -35 -105 -97 -6 -40 -8
-43 -43 -49 -46 -7 -64 -22 -78 -64 -9 -26 -8 -41 5 -70 20 -49 19 -55 -5 -55
-29 0 -76 -26 -84 -45 -11 -31 -6 -67 15 -96 11 -16 23 -29 27 -29 4 0 18 20
31 44 37 72 107 93 191 60 l40 -16 35 31 c20 17 47 34 60 37 23 6 25 9 19 58
-9 90 44 150 147 163 33 5 52 16 88 54 29 30 59 51 79 55 21 4 32 12 32 23 0
23 27 59 59 79 26 17 26 17 10 50 l-17 33 -21 -30 -21 -29 -51 34 c-59 39
-104 44 -142 14z"/>
<path d="M9272 9840 c-24 -10 -52 -64 -52 -100 0 -24 1 -24 -43 -5 -47 20
-111 19 -131 -1 -26 -26 -31 -62 -10 -85 10 -11 19 -41 22 -72 l4 -52 37 -1
c90 -4 136 -59 129 -156 -3 -47 -10 -64 -30 -85 l-26 -25 32 -44 c33 -45 46
-54 46 -30 0 23 51 78 87 93 50 20 115 1 163 -50 l39 -40 31 26 c62 53 153 54
209 4 29 -27 60 -93 61 -129 0 -27 2 -28 49 -28 27 0 57 -3 65 -6 12 -4 20 4
31 30 27 63 16 86 -69 154 -15 12 -14 16 11 49 40 52 38 106 -5 144 -19 17
-44 29 -60 29 -47 0 -53 10 -36 61 28 85 -21 136 -122 126 l-52 -5 -4 60 c-5
67 -16 81 -77 98 -26 7 -47 5 -87 -9 l-54 -18 -22 25 c-23 25 -77 53 -100 51
-7 0 -23 -4 -36 -9z"/>
<path d="M8370 9752 c-19 -9 -50 -37 -68 -62 -30 -39 -38 -44 -67 -41 -49 4
-123 -32 -136 -66 -11 -28 -8 -92 6 -125 5 -12 -2 -21 -27 -33 -121 -62 -130
-153 -15 -172 40 -6 47 -22 20 -44 -9 -8 -25 -34 -36 -58 -19 -43 -19 -44 0
-70 14 -19 38 -31 84 -42 52 -14 63 -20 61 -35 -1 -11 -5 -36 -9 -57 -11 -71
34 -92 133 -62 67 20 69 20 89 -24 18 -40 58 -85 85 -93 21 -8 80 19 113 49
l27 27 28 -27 c15 -15 42 -31 59 -38 30 -10 34 -8 70 27 36 36 38 41 35 94 -5
96 58 159 140 141 l36 -9 7 51 c6 39 15 59 40 84 29 29 39 33 86 33 l53 0 -32
33 c-37 38 -39 47 -13 47 33 0 61 47 61 102 0 82 -41 118 -135 118 l-42 0 5
55 c4 50 2 56 -27 86 -30 30 -34 31 -94 26 -34 -3 -71 -7 -81 -9 -14 -2 -21 5
-27 27 -5 17 -18 41 -30 54 -19 20 -29 23 -83 19 -45 -3 -71 -10 -95 -27 -27
-20 -37 -22 -50 -12 -30 21 -96 51 -116 51 -11 0 -36 -8 -55 -18z"/>
<path d="M7765 9357 c-20 -20 -35 -45 -35 -58 0 -38 -12 -46 -69 -45 -47 0
-57 -4 -78 -29 -20 -23 -24 -35 -19 -69 2 -23 6 -52 8 -65 3 -21 -2 -26 -32
-32 -18 -4 -40 -15 -47 -25 -19 -26 -16 -82 7 -119 l20 -33 -40 -40 c-22 -22
-40 -49 -40 -62 0 -31 52 -80 85 -80 24 0 26 -3 20 -22 -5 -13 -8 -45 -9 -73
-1 -53 6 -61 79 -82 25 -7 29 -13 27 -36 -4 -35 37 -77 76 -77 16 0 46 12 67
26 l38 25 26 -25 c19 -18 38 -26 62 -26 44 0 68 24 76 74 5 29 9 36 22 30 9
-4 34 -9 57 -12 35 -3 44 0 63 23 12 16 21 42 21 63 0 31 2 34 23 28 12 -4 41
-10 63 -13 35 -4 44 -2 58 18 20 30 21 68 0 97 -16 24 -10 46 11 38 14 -5 71
9 93 23 21 13 -23 95 -46 86 -81 -34 -149 -29 -183 13 -17 22 -20 36 -16 74
l6 47 -52 15 c-95 28 -124 93 -78 172 26 43 26 41 -2 48 -45 11 -77 45 -77 81
0 43 -32 66 -100 73 -46 4 -52 2 -85 -31z"/>
<path d="M9345 9251 c-28 -12 -52 -40 -70 -84 -8 -20 -17 -37 -18 -37 -2 0
-20 9 -42 20 -46 24 -112 26 -142 5 -28 -19 -47 -77 -39 -119 3 -18 4 -35 1
-38 -3 -3 -24 1 -47 9 -95 33 -162 -34 -136 -138 10 -37 9 -43 -8 -52 -37 -20
-74 -69 -74 -96 0 -35 37 -70 83 -78 l35 -5 -5 -58 c-5 -50 -3 -59 18 -78 24
-24 71 -29 113 -13 22 9 25 7 31 -19 8 -38 40 -60 83 -60 27 0 43 9 74 40 22
22 42 40 44 40 2 0 4 -16 4 -35 0 -79 32 -115 104 -119 30 -1 31 -3 36 -58 6
-70 29 -98 80 -98 20 0 45 7 56 15 28 21 37 18 56 -15 32 -56 103 -62 152 -14
23 24 26 25 55 10 31 -16 87 -21 116 -10 22 9 45 57 45 94 0 30 1 30 40 24 35
-6 43 -3 70 24 34 35 34 60 -2 120 -19 31 -19 32 -1 38 55 18 72 28 83 49 18
34 5 84 -31 122 l-32 32 22 27 c45 58 13 128 -65 140 -37 5 -44 10 -38 23 4 9
11 33 17 53 21 74 -30 120 -134 120 l-58 0 -10 49 c-21 96 -55 136 -121 140
-51 3 -80 -8 -124 -50 -36 -34 -39 -35 -50 -17 -26 44 -62 80 -93 92 -36 16
-49 16 -78 5z"/>
<path d="M8607 8782 c-13 -14 -17 -40 -18 -113 0 -130 -9 -173 -35 -177 -35
-5 -70 34 -124 138 -43 85 -55 100 -75 100 -23 0 -24 -2 -18 -52 4 -39 20 -78
61 -148 54 -92 56 -98 59 -180 5 -108 -3 -122 -52 -96 -60 33 -113 115 -174
269 -26 63 -48 74 -58 27 -6 -34 -55 -80 -84 -80 -17 0 -16 -6 17 -57 45 -70
138 -263 155 -323 9 -29 13 -105 13 -215 1 -192 -13 -258 -78 -395 -20 -41
-36 -82 -36 -92 0 -73 99 -135 315 -196 154 -44 289 -31 315 31 5 12 20 75 34
139 14 64 34 134 45 155 24 46 102 122 281 275 74 63 150 132 169 153 37 42
131 182 131 195 0 4 -13 13 -30 20 -18 7 -36 27 -47 49 l-18 38 -48 -81 c-60
-99 -84 -126 -113 -126 -29 0 -37 25 -29 98 6 55 30 203 40 249 5 21 4 21 -22
7 -16 -7 -41 -14 -58 -14 -37 0 -91 32 -99 58 -5 13 -13 18 -29 15 -19 -4 -28
-25 -70 -178 -52 -185 -72 -229 -113 -247 -22 -11 -28 -10 -40 7 -7 10 -12 28
-9 39 3 12 19 138 36 281 25 210 28 260 17 264 -32 10 -78 70 -78 100 0 24 -4
31 -19 31 -10 0 -35 11 -55 25 -44 30 -39 29 -59 7z"/>
<path d="M3576 8742 c-5 -14 -29 -33 -64 -51 -50 -25 -593 -281 -1792 -846
-432 -204 -491 -227 -584 -227 -69 -1 -69 -1 -340 135 -149 75 -299 152 -333
171 -57 33 -63 34 -63 16 0 -27 34 -47 365 -212 404 -200 366 -201 850 24 154
71 467 216 695 320 1121 513 1220 560 1245 590 26 31 40 69 33 90 -3 8 -8 4
-12 -10z"/>
<path d="M3290 8498 c-199 -96 -815 -380 -1544 -712 -502 -229 -560 -249 -660
-226 -26 6 -176 74 -332 152 -157 77 -286 139 -288 137 -8 -8 64 -242 85 -279
25 -44 83 -80 129 -80 22 0 41 9 62 30 16 17 31 30 34 30 2 0 4 -13 4 -28 0
-44 57 -148 102 -186 76 -66 187 -82 312 -46 52 15 131 95 147 149 12 41 13
41 48 34 20 -5 72 -7 116 -6 169 4 284 83 329 226 4 14 17 17 74 17 185 0 302
55 383 180 l31 47 84 6 c137 10 246 74 294 173 l22 44 68 0 c147 0 239 43 297
139 l31 52 69 2 c109 4 176 53 223 162 11 25 16 45 12 44 -4 0 -63 -28 -132
-61z"/>
<path d="M5000 7159 c-165 -14 -375 -75 -497 -145 l-42 -24 -1015 0 -1016 0 0
-215 0 -215 55 0 55 0 0 -1780 0 -1780 2590 0 2590 0 0 1780 0 1780 55 0 55 0
0 215 0 215 -1010 0 -1011 0 -92 44 c-99 47 -227 91 -292 101 -22 3 -60 10
-85 15 -70 14 -236 18 -340 9z m100 -218 l0 -178 -87 -12 c-49 -6 -98 -14
-110 -17 -18 -5 -34 11 -105 101 -153 197 -150 193 -129 204 58 31 282 77 389
80 l42 1 0 -179z m237 165 c102 -15 275 -65 271 -77 -2 -4 -52 -70 -112 -146
-60 -76 -111 -140 -112 -141 -1 -2 -52 2 -113 9 l-111 13 0 178 0 178 43 0
c23 0 84 -6 134 -14z m-639 -242 c109 -143 122 -164 101 -164 -23 0 -140 -59
-192 -96 -27 -20 -53 -32 -60 -27 -27 16 -262 205 -265 212 -8 23 265 213 303
210 5 0 56 -61 113 -135z m1065 94 c64 -37 222 -157 215 -163 -2 -2 -63 -50
-136 -109 l-133 -106 -32 24 c-38 29 -163 92 -201 102 -15 3 -26 10 -24 15 8
23 215 278 226 278 8 1 46 -18 85 -41z m-1398 -33 c-102 -74 -183 -155 -274
-272 l-33 -43 -789 0 -789 0 0 165 0 165 953 0 c837 -1 950 -2 932 -15z m3415
-150 l0 -165 -793 0 -794 0 -36 53 c-43 61 -128 152 -211 225 l-60 52 947 0
947 0 0 -165z m-1620 -204 c39 -58 67 -108 63 -111 -5 -4 -71 -35 -148 -69
-91 -41 -141 -59 -143 -51 -6 16 -114 150 -145 179 l-26 23 132 104 132 104
33 -37 c18 -21 64 -85 102 -142z m-1791 64 c71 -55 130 -103 130 -106 1 -4
-22 -31 -49 -60 -28 -30 -66 -77 -86 -105 l-36 -52 -151 70 c-83 38 -153 71
-155 73 -13 12 192 289 209 283 5 -2 67 -48 138 -103z m1015 51 c154 -43 255
-99 368 -205 127 -119 219 -272 289 -480 37 -111 83 -336 73 -353 -7 -11
-1961 -10 -1968 0 -8 13 31 194 65 301 36 113 110 269 171 361 58 89 178 208
265 264 84 54 190 98 288 120 94 21 364 16 449 -8z m-1101 -426 c5 -4 -7 -38
-26 -76 -19 -38 -45 -97 -58 -131 -15 -39 -30 -63 -39 -63 -21 0 -300 67 -306
73 -9 9 94 269 129 324 5 8 51 -9 149 -54 79 -36 147 -69 151 -73z m2012 68
c36 -80 100 -257 94 -262 -2 -1 -61 -15 -132 -30 -70 -16 -136 -30 -146 -33
-15 -4 -22 4 -31 34 -7 21 -33 82 -58 136 -25 53 -43 99 -40 102 7 8 262 124
271 125 5 0 23 -33 42 -72z m-2290 -369 c77 -18 141 -34 143 -35 2 -1 -8 -54
-22 -117 -14 -63 -26 -126 -26 -141 l0 -26 -170 0 -170 0 0 24 c0 31 36 215
56 284 12 42 18 52 32 48 9 -3 80 -19 157 -37z m2414 4 c16 -59 51 -263 51
-295 l0 -28 -153 0 -153 0 -12 93 c-7 51 -19 117 -27 147 -8 30 -13 55 -11 57
5 5 250 61 273 62 18 1 24 -7 32 -36z m-2558 -625 c1 -123 1 -508 0 -1190 l-1
-608 -525 0 -525 0 0 940 0 940 525 0 525 0 1 -82z m3572 -231 c0 -171 -2
-594 -2 -939 l-1 -628 -525 0 -525 0 0 940 0 940 528 0 527 0 -2 -313z m-2343
-852 l0 -1135 -485 0 -485 0 -1 823 c-1 452 -2 963 -3 1134 l-1 313 488 0 487
0 0 -1135z m1051 840 c1 -159 1 -669 0 -1132 l-1 -843 -485 0 -485 0 0 1135 0
1135 485 -2 485 -3 1 -290z"/>
<path d="M4871 6402 c-55 -27 -75 -63 -76 -132 0 -63 16 -95 67 -133 34 -25
120 -27 166 -3 68 35 94 140 54 215 -35 66 -137 91 -211 53z m139 -47 c30 -32
39 -109 16 -153 -19 -37 -70 -57 -109 -43 -40 16 -57 49 -57 114 0 48 4 62 25
82 34 34 93 34 125 0z"/>
<path d="M5210 6402 c-49 -24 -80 -75 -80 -131 0 -95 59 -154 155 -154 97 0
155 58 155 154 0 84 -68 149 -155 149 -22 0 -56 -8 -75 -18z m134 -45 c29 -29
40 -85 26 -138 -14 -52 -62 -77 -116 -59 -44 15 -54 35 -54 110 0 51 4 65 25
85 32 33 87 34 119 2z"/>
<path d="M4560 6264 l0 -145 28 3 c26 3 27 5 30 71 l3 67 54 0 c48 0 55 2 55
20 0 18 -7 20 -55 20 l-55 0 0 35 0 35 70 0 c63 0 70 2 70 20 0 19 -7 20 -100
20 l-100 0 0 -146z"/>
<path d="M5487 6268 l2 -143 78 2 c57 2 85 8 102 21 90 67 91 180 2 239 -28
19 -48 23 -110 23 l-76 0 2 -142z m162 78 c51 -54 31 -155 -35 -176 -62 -21
-65 -16 -67 98 l-2 102 41 0 c30 0 46 -6 63 -24z"/>
<path d="M4580 5875 l0 -145 26 0 25 0 -2 100 c-1 56 0 102 2 104 2 3 17 -38
33 -90 29 -92 30 -94 60 -94 31 0 32 2 55 84 13 46 28 90 32 98 5 7 9 -32 9
-94 l0 -108 30 0 31 0 -3 143 -3 142 -45 3 -45 3 -24 -86 c-14 -47 -27 -88
-31 -90 -4 -2 -19 36 -35 85 l-29 90 -43 0 -43 0 0 -145z"/>
<path d="M5015 6003 c-4 -10 -19 -52 -35 -93 -15 -41 -37 -99 -49 -127 l-21
-53 25 0 c20 0 28 8 40 38 15 37 15 37 72 36 57 0 58 -1 73 -37 12 -30 20 -37
43 -37 15 0 27 4 27 9 0 5 -25 70 -56 145 -53 129 -58 136 -84 136 -17 0 -31
-7 -35 -17z m74 -155 c1 -5 -17 -8 -39 -8 -22 0 -40 3 -40 8 0 4 8 29 17 56
l18 48 22 -48 c12 -27 22 -52 22 -56z"/>
<path d="M5230 5875 l0 -145 30 0 c30 0 30 1 30 55 0 30 4 55 9 55 5 0 32 -25
59 -56 43 -48 54 -55 81 -52 l32 3 -46 52 -45 51 30 30 c52 53 34 122 -38 142
-20 5 -61 10 -89 10 l-53 0 0 -145z m124 95 c20 -7 26 -17 26 -38 0 -37 -17
-52 -57 -52 -33 0 -33 0 -33 50 0 55 10 61 64 40z"/>
<path d="M5480 6000 c0 -17 7 -20 45 -20 55 0 58 -7 53 -148 l-3 -102 27 0 27
0 3 123 3 122 48 3 c39 3 47 6 47 23 0 18 -8 19 -125 19 -118 0 -125 -1 -125
-20z"/>
<path d="M2940 5342 l-45 -3 3 -384 2 -385 425 0 425 0 -3 388 -2 387 -380 0
c-209 0 -400 -1 -425 -3z m770 -387 l0 -355 -387 2 -388 3 -3 340 c-1 187 0
346 3 352 3 10 90 13 390 13 l385 0 0 -355z"/>
<path d="M3053 5202 c-6 -4 -17 -20 -22 -35 -12 -31 -15 -135 -5 -161 10 -26
41 -38 64 -26 28 15 26 40 -2 37 -22 -2 -23 2 -26 64 -2 51 1 71 13 83 9 9 21
13 27 10 6 -4 8 2 6 12 -3 20 -35 29 -55 16z"/>
<path d="M3197 5203 c-4 -3 -7 -24 -7 -45 0 -27 -4 -38 -15 -38 -11 0 -15 11
-15 40 0 32 -4 40 -18 40 -17 0 -19 -11 -21 -110 -2 -105 -1 -110 18 -110 18
0 21 6 21 50 0 38 4 50 15 50 11 0 15 -12 15 -50 0 -38 4 -50 15 -50 12 0 15
19 15 115 0 105 -5 127 -23 108z"/>
<path d="M3245 5200 c-3 -6 -5 -57 -3 -115 l3 -105 38 0 c26 0 37 4 37 15 0 8
-9 15 -20 15 -17 0 -20 7 -20 40 0 33 3 40 20 40 26 0 26 20 -1 27 -27 7 -24
60 4 55 25 -4 21 25 -5 32 -33 8 -46 7 -53 -4z"/>
<path d="M3368 5203 l-28 -4 0 -110 0 -109 40 0 c29 0 40 4 40 15 0 9 -9 15
-25 15 -22 0 -25 4 -25 35 0 28 4 35 20 35 13 0 20 7 20 20 0 13 -7 20 -20 20
-15 0 -20 7 -20 25 0 20 5 25 25 25 18 0 25 5 25 20 0 11 -6 19 -12 19 -7 -1
-25 -4 -40 -6z"/>
<path d="M3448 5199 c-27 -15 -22 -61 13 -108 36 -51 35 -77 -4 -74 -21 1 -27
-3 -27 -18 0 -17 6 -20 43 -17 42 3 42 3 45 45 2 32 -3 51 -24 82 -29 45 -27
77 6 68 24 -6 28 18 4 27 -22 8 -36 7 -56 -5z"/>
<path d="M3563 5202 c-22 -3 -23 -7 -23 -113 l0 -109 40 0 c29 0 40 4 40 15 0
8 -9 15 -20 15 -16 0 -20 7 -20 35 0 24 5 35 15 35 8 0 15 9 15 20 0 13 -7 20
-20 20 -15 0 -20 7 -20 25 0 20 5 25 25 25 18 0 25 5 25 19 0 20 -5 21 -57 13z"/>
<path d="M3050 4895 c0 -9 -7 -18 -15 -21 -22 -9 -18 -43 10 -79 25 -34 24
-45 -7 -45 -10 0 -18 -7 -18 -15 0 -8 5 -15 10 -15 6 0 10 -7 10 -15 0 -8 7
-15 15 -15 8 0 15 6 15 14 0 7 7 19 15 26 22 18 19 37 -12 76 -21 28 -24 37
-13 44 7 4 19 6 27 3 7 -3 13 0 13 6 0 7 -7 14 -15 17 -8 4 -15 12 -15 20 0 8
-4 14 -10 14 -5 0 -10 -7 -10 -15z"/>
<path d="M3470 4810 l0 -90 30 0 c20 0 30 5 30 15 0 8 -7 15 -15 15 -12 0 -15
15 -15 75 0 60 -3 75 -15 75 -12 0 -15 -17 -15 -90z"/>
<path d="M3550 4810 l0 -90 30 0 c24 0 33 6 41 27 6 17 7 35 1 48 -5 11 -7 35
-4 54 5 36 -7 51 -45 51 -22 0 -23 -3 -23 -90z m40 43 c0 -19 -3 -24 -10 -17
-6 6 -8 18 -4 27 9 24 14 21 14 -10z m0 -78 c0 -14 -4 -25 -9 -25 -4 0 -6 11
-3 25 2 14 6 25 8 25 2 0 4 -11 4 -25z"/>
<path d="M3157 4862 c-9 -10 -23 -35 -32 -56 -13 -30 -13 -41 -4 -52 7 -8 18
-13 26 -10 7 3 13 -1 13 -9 0 -22 23 -18 39 7 10 16 10 23 2 26 -6 2 -11 25
-11 52 0 55 -10 68 -33 42z m5 -67 c-2 -14 -8 -25 -13 -25 -10 0 -11 12 -3 34
10 25 22 19 16 -9z"/>
<path d="M3280 4860 c-23 -23 -24 -37 -10 -75 8 -22 15 -26 35 -23 28 6 29 4
15 -23 -6 -10 -20 -19 -30 -19 -11 0 -20 -7 -20 -15 0 -22 36 -19 60 5 29 29
29 144 1 160 -26 13 -28 13 -51 -10z m45 -41 c0 -15 -7 -25 -17 -27 -13 -3
-18 3 -18 21 0 13 3 27 7 31 13 12 28 -1 28 -25z"/>
<path d="M3386 4867 c-12 -9 -18 -26 -18 -49 0 -48 9 -61 38 -55 27 5 28 3 14
-24 -6 -10 -20 -19 -30 -19 -11 0 -20 -7 -20 -15 0 -22 44 -19 65 5 24 27 28
146 5 160 -20 13 -33 12 -54 -3z m42 -50 c2 -19 -1 -27 -12 -27 -20 0 -29 16
-21 41 9 27 29 19 33 -14z"/>
<path d="M3220 4735 c0 -8 7 -15 15 -15 8 0 15 7 15 15 0 8 -7 15 -15 15 -8 0
-15 -7 -15 -15z"/>
<path d="M2870 4050 l0 -430 470 0 470 0 0 430 0 430 -470 0 -470 0 0 -430z
m900 0 l0 -390 -430 0 -430 0 0 390 0 390 430 0 430 0 0 -390z"/>
<path d="M3360 4185 c0 -118 1 -125 20 -125 18 0 20 7 20 70 0 40 4 70 10 70
6 0 10 -30 10 -70 0 -64 2 -70 20 -70 20 0 21 5 18 83 -3 81 -3 82 -30 85 -25
3 -28 7 -28 43 0 32 -3 39 -20 39 -19 0 -20 -7 -20 -125z"/>
<path d="M2970 4295 c-1 -3 -1 -56 -1 -117 0 -95 2 -114 15 -116 13 -3 16 7
16 52 0 49 2 56 20 56 13 0 20 7 20 20 0 14 -7 20 -21 20 -30 0 -23 54 9 58
40 6 26 32 -18 32 -22 0 -40 -2 -40 -5z"/>
<path d="M3067 4223 c-4 -3 -7 -42 -7 -85 0 -70 2 -79 18 -76 14 3 18 16 20
71 2 51 6 67 17 67 8 0 15 7 15 15 0 15 -50 22 -63 8z"/>
<path d="M3150 4216 c-21 -27 -25 -102 -6 -131 14 -21 24 -26 49 -23 42 4 50
35 11 40 -40 4 -43 28 -4 28 31 0 31 0 28 48 -3 44 -5 47 -34 50 -19 2 -36 -3
-44 -12z m50 -36 c0 -11 -7 -20 -15 -20 -15 0 -21 21 -8 33 12 13 23 7 23 -13z"/>
<path d="M3257 4223 c-14 -13 -6 -45 19 -78 28 -37 24 -60 -8 -49 -16 5 -19 2
-16 -13 4 -22 52 -30 74 -12 22 18 17 63 -11 89 -14 13 -25 27 -25 32 0 4 11
8 25 8 16 0 25 6 25 15 0 11 -11 15 -38 15 -21 0 -42 -3 -45 -7z"/>
<path d="M3347 4033 c-4 -3 -7 -21 -7 -40 0 -26 -4 -33 -20 -33 -27 0 -40 -30
-40 -93 0 -63 13 -80 62 -75 l33 3 3 123 c2 98 0 122 -11 122 -8 0 -17 -3 -20
-7z m-7 -158 c0 -30 -4 -55 -10 -55 -11 0 -14 93 -3 103 12 12 13 8 13 -48z"/>
<path d="M2970 4010 c-4 -171 -1 -215 14 -218 13 -3 16 6 16 42 0 34 4 46 15
46 27 0 55 38 55 75 0 44 -29 75 -70 75 -23 0 -30 -5 -30 -20z m55 -31 c9 -14
-3 -59 -15 -59 -6 0 -10 16 -10 35 0 34 12 46 25 24z"/>
<path d="M3093 3953 c-9 -3 -13 -30 -13 -84 0 -72 2 -79 20 -79 18 0 20 7 20
65 0 49 4 67 15 71 23 9 18 34 -7 33 -13 0 -29 -3 -35 -6z"/>
<path d="M3169 3938 c-16 -29 -15 -114 1 -133 18 -22 67 -19 80 4 14 27 13
124 -2 139 -20 20 -66 14 -79 -10z m51 -63 c0 -30 -4 -55 -10 -55 -5 0 -10 25
-10 55 0 30 5 55 10 55 6 0 10 -25 10 -55z"/>
<path d="M3400 3886 c0 -84 10 -99 62 -94 l33 3 3 83 c3 77 2 82 -18 82 -18 0
-20 -6 -20 -70 0 -40 -4 -70 -10 -70 -6 0 -10 30 -10 70 0 63 -2 70 -20 70
-18 0 -20 -7 -20 -74z"/>
<path d="M3536 3938 c-19 -27 -21 -107 -3 -132 9 -12 23 -17 42 -14 35 4 45
25 13 30 -21 3 -23 8 -23 53 0 45 2 50 23 53 30 5 23 26 -10 30 -18 2 -31 -4
-42 -20z"/>
<path d="M3631 3946 c-18 -21 -23 -98 -9 -126 17 -32 80 -37 86 -6 3 15 0 18
-17 13 -21 -5 -46 14 -34 26 3 4 16 7 29 7 27 0 39 36 24 74 -7 20 -17 26 -39
26 -15 0 -34 -6 -40 -14z m49 -35 c0 -22 -16 -36 -24 -22 -8 12 3 41 15 41 5
0 9 -9 9 -19z"/>
<path d="M6431 5010 l-1 -290 475 0 475 0 0 290 0 290 -474 0 -474 0 -1 -290z
m909 5 l0 -245 -292 -1 c-345 -1 -562 1 -566 5 -2 2 -4 112 -5 245 l-2 241
433 0 432 0 0 -245z"/>
<path d="M6580 5190 c-35 -35 -27 -87 25 -161 34 -48 45 -72 43 -94 -3 -29 -5
-30 -45 -28 -41 2 -43 0 -43 -27 0 -30 14 -40 60 -40 46 0 76 16 90 49 19 47
6 96 -45 164 -57 77 -57 102 0 102 22 0 44 6 48 13 26 41 -94 61 -133 22z"/>
<path d="M6815 5198 c-7 -21 -85 -342 -85 -350 0 -4 13 -8 29 -8 26 0 30 4 36
40 7 39 8 40 45 40 37 0 38 -1 45 -40 6 -36 10 -40 36 -40 35 0 36 -12 -19
215 -33 135 -39 150 -60 153 -12 2 -24 -3 -27 -10z m35 -125 c0 -10 3 -35 6
-55 6 -35 5 -38 -16 -38 -21 0 -22 3 -16 38 3 20 6 45 6 55 0 9 5 17 10 17 6
0 10 -8 10 -17z"/>
<path d="M6977 5203 c-4 -3 -7 -87 -7 -185 l0 -178 65 0 65 0 0 30 c0 28 -3
30 -35 30 l-35 0 0 155 0 155 -23 0 c-13 0 -27 -3 -30 -7z"/>
<path d="M7130 5025 l0 -186 63 3 c59 3 62 4 62 28 0 21 -4 24 -32 24 -33 -1
-33 -1 -34 47 -1 27 -2 55 -3 62 -1 7 11 12 29 12 23 1 31 6 33 23 3 19 -1 22
-27 22 -29 0 -31 2 -31 40 0 22 -1 43 -2 47 -2 4 13 7 32 7 30 1 35 5 38 27 3
26 2 26 -62 28 l-66 2 0 -186z"/>
<path d="M6480 4153 l0 -478 425 0 425 0 0 478 0 477 -425 0 -425 0 0 -477z
m818 0 l-3 -438 -388 0 -387 0 0 433 c0 237 0 434 0 437 0 3 176 5 390 5 l390
0 -2 -437z"/>
<path d="M7094 4436 c-53 -23 -52 -75 1 -110 34 -22 32 -45 -5 -52 -21 -5 -30
-12 -30 -25 0 -22 14 -24 59 -8 59 21 69 79 20 120 -35 29 -32 49 7 49 19 0
25 5 22 18 -4 22 -35 25 -74 8z"/>
<path d="M6975 4409 c-22 -5 -48 -19 -57 -30 -20 -23 -24 -79 -8 -95 8 -8 7
-19 -1 -38 -10 -22 -10 -29 0 -35 9 -6 10 -11 2 -15 -6 -4 -11 -20 -11 -35 0
-36 23 -43 76 -25 47 16 66 40 62 79 -3 28 -7 30 -48 35 l-45 6 37 16 c39 17
55 50 45 88 -3 11 -1 20 4 20 5 0 9 9 9 20 0 22 -5 22 -65 9z m5 -69 c0 -29
-4 -40 -15 -40 -10 0 -15 10 -15 33 0 19 3 37 7 40 15 16 23 5 23 -33z m10
-144 c0 -8 -5 -18 -10 -21 -17 -11 -40 3 -34 20 8 19 44 20 44 1z"/>
<path d="M6835 4375 c-5 -2 -23 -6 -38 -9 -39 -9 -62 -64 -47 -111 8 -24 8
-40 1 -54 -7 -12 -8 -22 -1 -26 6 -4 5 -15 -2 -30 -6 -13 -8 -31 -5 -39 13
-33 116 -9 131 29 3 9 6 29 6 45 0 32 -25 46 -60 35 -32 -10 -23 9 13 25 28
13 32 20 35 60 2 25 7 49 13 55 15 15 10 25 -13 24 -13 0 -27 -2 -33 -4z m-9
-50 c8 -20 -4 -65 -17 -65 -15 0 -22 27 -15 55 7 28 24 33 32 10z m9 -155 c8
-13 -13 -40 -31 -40 -17 0 -18 22 -2 38 15 15 25 15 33 2z"/>
<path d="M6636 4318 c-21 -18 -28 -35 -32 -78 -7 -71 7 -110 40 -110 44 0 76
21 76 49 0 19 -3 22 -12 13 -16 -16 -58 -15 -58 2 0 7 15 17 33 22 31 9 32 11
32 64 0 52 -1 55 -26 58 -17 2 -37 -6 -53 -20z m44 -42 c0 -13 -7 -26 -15 -30
-11 -4 -15 1 -15 18 0 12 3 26 7 29 13 14 23 6 23 -17z"/>
<path d="M6643 4093 c-3 -10 -14 -26 -25 -36 -26 -25 -23 -39 17 -88 37 -44
37 -55 -4 -61 -31 -4 -38 -24 -12 -33 12 -3 21 -15 21 -25 0 -13 5 -17 15 -14
8 4 15 12 15 20 0 8 9 23 20 34 28 28 25 42 -15 90 -38 45 -38 60 0 60 29 0
43 18 21 26 -9 3 -16 15 -16 25 0 24 -28 25 -37 2z"/>
<path d="M6760 4060 c-14 -3 -26 -14 -28 -23 -3 -14 2 -16 26 -11 45 9 48 -11
8 -69 -52 -75 -49 -87 19 -87 48 0 55 2 55 20 0 16 -7 20 -31 20 -31 0 -31 1
-15 23 67 93 53 148 -34 127z"/>
<path d="M6937 4055 c-43 -42 -24 -132 26 -128 15 1 27 -3 27 -10 0 -24 -18
-39 -44 -39 -19 0 -26 -6 -26 -19 0 -21 38 -26 70 -9 38 20 54 155 24 198 -17
25 -56 29 -77 7z m55 -60 c2 -25 -1 -31 -19 -33 -19 -3 -23 1 -23 25 0 31 19
58 31 46 4 -5 9 -21 11 -38z"/>
<path d="M7060 4050 c-41 -41 -13 -138 36 -126 14 4 24 2 24 -4 0 -18 -41 -52
-56 -46 -9 4 -14 -1 -14 -15 0 -17 5 -20 32 -17 50 5 72 44 72 127 0 43 -5 75
-13 85 -18 22 -57 20 -81 -4z m58 -53 c3 -32 0 -37 -17 -37 -17 0 -21 6 -21
33 0 61 33 63 38 4z"/>
<path d="M6867 3914 c-15 -15 -7 -45 11 -42 9 2 17 12 17 22 0 20 -16 31 -28
20z"/>
<path d="M4215 4255 l0 -1035 388 0 387 0 0 448 1 447 32 20 c42 26 49 76 16
111 -12 13 -28 24 -36 24 -11 0 -13 93 -13 510 l0 510 -387 0 -388 0 0 -1035z
m737 505 l-2 -490 -149 0 c-82 0 -157 -3 -166 -6 -45 -18 -48 -111 -5 -134 10
-6 88 -10 172 -10 l153 0 -2 -432 -3 -433 -272 -1 c-150 -1 -308 1 -350 4
l-78 5 0 993 0 994 353 0 352 0 -3 -490z"/>
<path d="M5270 4783 l0 -508 -32 -15 c-59 -28 -58 -110 2 -133 l30 -11 0 -448
0 -448 385 0 385 0 2 1035 3 1035 -387 0 -388 0 0 -507z m740 -528 l0 -995
-62 -2 c-201 -5 -485 -5 -558 -1 l-85 5 3 429 2 429 149 0 c135 0 151 2 175
21 33 26 35 73 4 106 -21 22 -27 23 -175 23 l-153 0 0 490 0 490 350 0 350 0
0 -995z"/>
<path d="M965 7006 c-9 -7 -25 -36 -35 -65 -18 -53 -18 -53 -64 -57 -58 -4
-82 -17 -101 -54 -27 -53 -21 -67 31 -66 38 1 50 -4 70 -27 25 -29 33 -90 14
-102 -13 -8 7 -38 21 -33 5 2 19 23 31 48 16 31 30 46 46 48 28 4 68 -29 76
-64 4 -15 14 -24 26 -24 24 0 24 -1 5 43 -21 50 -19 83 6 108 18 18 29 21 70
16 l48 -6 12 37 c6 20 16 43 22 49 6 9 5 24 -3 45 -29 72 -67 87 -116 45 l-27
-23 -39 42 c-43 47 -69 58 -93 40z"/>
<path d="M1257 6833 c-8 -10 -18 -34 -22 -53 l-6 -35 -64 3 c-62 4 -64 3 -71
-22 -8 -33 30 -112 67 -139 24 -17 31 -18 62 -6 37 13 55 9 98 -22 13 -10 27
-4 75 28 72 49 97 76 92 99 -5 27 -52 56 -91 56 -26 0 -37 5 -45 22 -12 27
-61 86 -71 86 -4 0 -15 -8 -24 -17z"/>
<path d="M1441 6809 c-42 -32 -42 -48 0 -49 25 0 69 -53 69 -84 0 -21 -10 -38
-37 -60 -117 -100 -124 -108 -114 -146 5 -19 12 -47 15 -62 6 -27 44 -60 82
-72 19 -6 23 -1 33 41 7 26 17 53 23 60 16 20 66 15 88 -7 21 -21 40 -26 40
-11 0 16 51 43 88 46 75 6 95 81 32 123 -35 23 -35 23 -31 92 2 60 0 70 -17
79 -31 16 -54 13 -104 -13 l-46 -24 -17 44 c-16 43 -39 74 -54 74 -4 0 -26
-14 -50 -31z"/>
<path d="M626 6778 c-3 -13 -6 -47 -6 -76 l0 -52 -24 15 c-15 10 -40 15 -68
13 -38 -3 -43 -6 -46 -29 -4 -33 52 -117 94 -141 21 -12 56 -19 100 -21 l69
-2 -3 45 c-4 60 25 100 72 100 39 0 56 15 56 50 0 46 -31 64 -95 56 -42 -5
-55 -3 -55 7 0 20 -43 57 -67 57 -13 0 -23 -8 -27 -22z"/>
<path d="M394 6735 c-12 -8 -27 -28 -34 -44 -11 -28 -16 -30 -60 -29 -90 2
-128 -54 -80 -115 20 -25 20 -28 5 -56 -15 -30 -20 -82 -9 -94 3 -3 17 7 31
24 32 37 84 41 107 7 18 -26 23 -173 6 -183 -19 -12 -10 -33 27 -61 34 -26 37
-27 47 -10 6 10 26 36 44 58 17 22 32 46 32 54 0 17 5 17 48 4 30 -8 37 -6 59
16 18 18 23 32 19 47 -3 12 -6 41 -6 64 0 40 -2 43 -42 61 -49 22 -77 50 -107
107 -21 39 -29 105 -13 105 5 0 17 6 27 14 18 13 17 14 -13 30 -38 20 -61 20
-88 1z"/>
<path d="M1778 6709 c-10 -5 -20 -26 -24 -45 -6 -32 -3 -38 30 -66 46 -37 50
-87 11 -128 -23 -24 -24 -30 -14 -58 6 -18 8 -44 5 -58 -7 -25 -6 -25 22 -10
27 14 33 13 68 -4 21 -11 47 -17 57 -14 10 3 32 0 48 -7 28 -11 32 -10 65 22
43 42 45 79 7 107 l-28 20 23 47 c27 57 23 76 -23 98 -52 25 -101 22 -116 -5
-11 -21 -13 -20 -25 23 -22 74 -62 104 -106 78z"/>
<path d="M8686 6603 l2 -88 338 -87 c187 -47 349 -87 362 -87 21 -1 22 2 22
87 l0 87 -352 88 c-194 48 -357 87 -363 87 -6 0 -9 -35 -9 -87z"/>
<path d="M956 6653 c-7 -16 -17 -42 -20 -59 l-7 -31 -47 24 c-58 30 -91 27
-112 -9 -15 -28 -12 -44 25 -130 5 -12 3 -18 -7 -18 -16 0 -53 -37 -60 -60
-10 -29 11 -50 50 -50 54 0 67 -13 67 -62 0 -41 2 -43 31 -46 26 -3 35 3 57
37 32 48 33 58 10 65 -10 4 -35 29 -55 57 -45 62 -51 109 -15 134 103 72 125
86 145 95 27 12 28 20 1 54 -26 33 -45 33 -63 -1z"/>
<path d="M990 6555 c-14 -14 -45 -35 -70 -47 -59 -30 -63 -59 -18 -119 45 -59
77 -73 179 -77 72 -3 87 -1 100 14 19 23 17 105 -4 138 -11 16 -15 35 -11 50
10 41 -25 66 -94 66 -48 0 -62 -4 -82 -25z"/>
<path d="M1214 6545 l-21 -14 38 -163 c35 -148 100 -501 98 -531 0 -7 -7 14
-15 46 -11 48 -25 71 -70 120 -31 34 -72 86 -92 115 -31 46 -37 51 -51 38 -9
-7 -28 -20 -44 -28 l-27 -14 90 -134 c50 -74 110 -163 134 -196 35 -49 45 -73
51 -120 17 -143 115 -751 136 -842 19 -86 39 -297 50 -542 13 -271 3 -512 -26
-626 -22 -86 -69 -176 -123 -236 -104 -115 -109 -129 -64 -179 l28 -31 75 80
c126 136 157 203 178 382 6 57 9 64 9 30 2 -68 -23 -191 -48 -241 -31 -61 -84
-133 -148 -201 l-54 -57 39 -16 c68 -29 89 -30 107 -4 9 13 35 49 57 79 95
131 114 201 128 479 10 185 2 337 -29 549 -11 78 -19 152 -19 165 2 41 48
-296 59 -427 14 -177 -4 -483 -35 -591 -15 -52 -96 -195 -142 -250 l-26 -30
29 -6 c16 -4 47 -7 69 -8 40 -1 40 0 91 82 62 99 77 136 99 247 17 82 17 234
0 410 -2 25 2 9 10 -35 42 -245 0 -490 -113 -655 -17 -24 -30 -46 -28 -47 6
-7 77 20 106 40 45 30 96 107 118 176 14 45 17 91 16 241 l-1 185 -87 464
c-47 255 -98 530 -111 610 -35 203 -141 663 -144 625 -2 -19 49 -396 69 -515
20 -117 25 -174 10 -109 -18 75 -62 383 -110 770 -39 313 -62 457 -101 635
-27 127 -55 240 -61 251 -10 21 -47 44 -71 44 -7 0 -22 -7 -33 -15z m96 -250
c49 -241 131 -735 129 -779 -1 -11 -19 92 -40 229 -22 138 -64 373 -94 523
-30 150 -55 275 -55 279 0 29 16 -37 60 -252z m27 -507 c-3 -7 -5 -2 -5 12 0
14 2 19 5 13 2 -7 2 -19 0 -25z m10 -60 c-3 -7 -5 -2 -5 12 0 14 2 19 5 13 2
-7 2 -19 0 -25z m30 -170 c-3 -8 -6 -5 -6 6 -1 11 2 17 5 13 3 -3 4 -12 1 -19z
m10 -70 c-3 -7 -5 -2 -5 12 0 14 2 19 5 13 2 -7 2 -19 0 -25z m88 -186 c15
-94 25 -177 23 -184 -4 -11 -59 335 -57 362 1 29 8 -7 34 -178z m-78 131 c-3
-10 -5 -4 -5 12 0 17 2 24 5 18 2 -7 2 -21 0 -30z m10 -60 c-3 -10 -5 -4 -5
12 0 17 2 24 5 18 2 -7 2 -21 0 -30z m98 -588 c68 -443 75 -518 73 -795 l-2
-245 -6 290 c-8 318 -11 346 -105 944 -30 189 -54 351 -54 360 2 21 39 -198
94 -554z m89 -250 l5 -60 -10 55 c-26 143 -89 543 -88 558 2 25 87 -482 93
-553z m70 -80 c30 -192 57 -375 60 -405 l5 -55 -9 50 c-18 93 -120 749 -119
764 1 32 9 -13 63 -354z m73 -512 c-3 -10 -5 -2 -5 17 0 19 2 27 5 18 2 -10 2
-26 0 -35z"/>
<path d="M8470 6218 c-111 -143 -199 -262 -197 -265 11 -11 751 -193 757 -186
21 25 361 525 359 527 -2 1 -165 43 -361 93 l-357 91 -201 -260z"/>
<path d="M654 6428 c10 -48 18 -139 27 -298 5 -91 13 -192 18 -225 9 -56 26
-377 36 -685 4 -126 3 -129 -5 -40 -4 52 -13 221 -20 375 -13 331 -20 401 -39
397 -7 -1 -50 28 -94 66 -152 128 -257 186 -257 143 0 -5 21 -27 48 -48 140
-112 191 -164 226 -233 19 -38 39 -93 45 -122 6 -29 22 -307 36 -618 33 -757
34 -771 51 -880 48 -306 163 -679 253 -817 62 -95 154 -176 227 -197 19 -6 20
-2 19 50 0 50 -4 58 -30 77 -100 69 -129 116 -215 352 -93 252 -167 512 -189
660 -11 74 -36 363 -46 530 -3 55 -9 112 -11 128 -3 15 -1 27 4 27 5 0 12 -60
16 -132 9 -172 33 -453 47 -548 32 -221 217 -794 294 -912 14 -20 52 -56 86
-79 l62 -42 41 48 41 47 -60 62 c-66 68 -117 154 -169 285 -40 100 -158 471
-154 483 2 5 30 -78 63 -183 73 -239 128 -374 188 -467 52 -80 123 -162 141
-162 6 0 20 14 30 30 l18 31 -34 37 c-109 121 -215 346 -307 654 -116 387
-141 540 -196 1198 -37 437 -38 416 18 536 40 85 69 159 116 289 l11 30 -17
-25 c-10 -14 -31 -38 -48 -55 -17 -16 -59 -69 -92 -116 -58 -81 -62 -90 -66
-150 -2 -42 -4 -27 -5 47 -1 61 -5 158 -8 216 -6 93 -9 105 -28 114 -27 12
-32 53 -11 94 20 39 13 50 -31 50 -30 0 -34 -3 -30 -22z m123 -740 c-2 -35 -3
-9 -3 57 0 66 1 94 3 63 2 -32 2 -86 0 -120z m34 -443 c28 -397 45 -573 69
-685 28 -130 33 -164 15 -105 -27 91 -54 267 -70 460 -27 335 -45 606 -43 659
l1 51 4 -45 c2 -25 12 -175 24 -335z m123 -915 c4 -24 3 -29 -3 -15 -4 11 -11
36 -15 55 -4 24 -3 29 3 15 4 -11 11 -36 15 -55z"/>
<path d="M1653 6396 l-38 -44 -10 32 c-11 33 -57 58 -74 40 -18 -17 -34 -99
-27 -130 10 -40 83 -107 133 -122 22 -6 60 -12 84 -12 79 0 145 61 120 109
-12 22 -19 24 -64 21 -27 -2 -29 0 -22 28 26 121 -28 163 -102 78z"/>
<path d="M265 6404 c-13 -14 -27 -35 -31 -46 -4 -14 -11 -17 -22 -12 -10 4
-37 9 -62 12 -88 7 -107 -63 -30 -114 36 -24 40 -31 40 -70 0 -35 5 -47 25
-60 23 -15 27 -15 50 0 13 9 43 44 67 78 37 56 43 71 46 129 6 105 -30 140
-83 83z"/>
<path d="M1844 6299 c34 -40 33 -71 -4 -112 l-29 -34 30 -41 c24 -33 38 -42
80 -51 27 -6 61 -11 75 -11 87 0 84 88 -3 106 l-31 6 24 35 c27 40 29 60 10
86 -15 20 -39 24 -72 14 -14 -5 -26 -1 -39 13 -10 11 -29 20 -42 20 l-25 0 26
-31z"/>
<path d="M1066 6291 c-25 -5 -34 -16 -58 -75 -15 -38 -28 -71 -28 -73 0 -10
50 0 77 17 38 23 77 92 68 121 -7 20 -11 21 -59 10z"/>
<path d="M9272 6029 c-123 -169 -176 -250 -163 -246 88 23 708 223 705 228 -4
7 -350 269 -356 269 -2 0 -86 -113 -186 -251z"/>
<path d="M51 6175 c-22 -24 -41 -51 -41 -59 0 -19 25 -37 63 -45 29 -6 33 -11
38 -49 3 -24 12 -50 21 -58 14 -14 19 -14 49 1 19 10 42 24 51 32 15 14 18 11
29 -27 7 -23 19 -45 27 -47 22 -9 92 67 98 107 4 32 1 38 -42 69 -31 22 -51
31 -59 25 -54 -40 -67 -46 -90 -40 -31 8 -58 47 -59 89 -2 61 -30 62 -85 2z"/>
<path d="M1550 6161 c0 -6 -23 -40 -51 -76 -51 -67 -51 -67 -44 -123 l7 -55
54 103 c29 56 59 109 65 116 9 11 8 18 -1 29 -14 17 -30 20 -30 6z"/>
<path d="M1735 6102 c-22 -20 -66 -59 -97 -87 l-57 -50 -15 -105 c-7 -58 -14
-89 -14 -70 0 19 3 60 7 90 5 30 7 57 5 59 -1 2 -13 -29 -25 -69 -26 -88 -23
-148 21 -355 52 -247 108 -539 196 -1025 115 -639 134 -749 134 -792 0 -60 16
-44 35 33 25 103 9 227 -85 654 -28 124 -154 772 -165 845 -17 112 21 -63 79
-365 36 -187 85 -432 110 -545 91 -423 99 -511 58 -635 -11 -33 -22 -100 -26
-149 l-6 -90 26 30 c79 89 104 166 104 319 0 130 -18 245 -79 507 -27 117 -91
404 -141 638 -62 288 -108 475 -142 579 -62 190 -69 251 -38 315 23 48 92 125
172 192 l48 39 -27 38 c-14 20 -29 37 -32 37 -3 0 -24 -17 -46 -38z m-105
-647 c22 -82 40 -158 40 -170 -1 -21 -69 230 -95 348 -8 38 -15 80 -14 95 0
15 7 -7 14 -48 8 -41 32 -142 55 -225z"/>
<path d="M1070 5975 c0 -28 46 -582 70 -842 29 -314 35 -550 21 -850 -12 -241
-11 -267 4 -315 10 -29 21 -57 25 -61 9 -10 59 165 69 246 7 49 9 53 9 22 1
-48 -17 -135 -48 -230 l-23 -71 35 -74 c19 -41 64 -112 100 -158 l66 -82 15
37 c37 95 42 150 42 513 -1 393 -7 483 -60 780 -20 107 -57 339 -85 514 -27
176 -55 324 -61 330 -9 8 -10 -28 -5 -149 7 -153 13 -204 71 -575 35 -221 55
-419 53 -510 -1 -53 -3 -60 -5 -25 -14 235 -28 343 -97 788 -15 93 -28 229
-32 330 -6 171 -6 172 -38 219 -17 26 -35 48 -40 48 -8 0 -6 -79 9 -283 l4
-62 -9 55 c-5 30 -12 113 -15 183 -4 126 -5 129 -40 185 -22 36 -35 49 -35 37z
m153 -855 c29 -223 48 -538 45 -738 -1 -99 -3 -77 -9 103 -11 321 -24 485 -59
744 -16 124 -29 238 -29 255 1 32 8 -13 52 -364z m132 -1227 c-25 -143 -52
-261 -40 -173 2 19 16 98 29 175 20 112 26 179 28 335 l3 195 2 -190 c3 -167
0 -208 -22 -342z"/>
<path d="M9525 5869 c-170 -55 -346 -110 -391 -124 l-81 -25 1 -58 c0 -31 0
-126 -2 -209 -2 -146 -3 -153 -22 -153 -19 0 -20 7 -20 210 l0 209 -37 10
c-139 36 -723 181 -732 181 -8 0 -11 -325 -11 -1165 0 -641 2 -1165 4 -1165 2
0 175 -65 386 -145 210 -80 384 -145 386 -145 2 0 5 291 6 648 3 567 5 647 18
647 13 0 16 48 20 355 l5 355 375 127 c206 69 378 127 383 127 4 1 7 -158 7
-352 l0 -353 -385 -130 -386 -129 2 -647 c1 -357 4 -648 7 -648 14 0 768 275
790 287 10 6 13 252 15 1201 3 1080 2 1192 -12 1191 -9 0 -155 -45 -326 -100z
m-881 -473 c197 -52 360 -97 362 -99 2 -2 3 -161 2 -354 l-3 -350 -280 89
c-154 48 -317 100 -362 114 l-83 25 0 335 c0 184 1 334 3 334 1 0 164 -42 361
-94z m-287 -1535 c3 -45 9 -84 13 -86 4 -3 11 31 14 75 4 44 12 80 17 80 12 0
11 -24 -6 -142 -23 -151 -30 -149 -50 18 -18 142 -19 162 -5 148 6 -6 13 -47
17 -93z m1403 73 c13 -34 13 -154 -1 -193 -11 -30 -35 -51 -58 -51 -7 0 -11
43 -11 125 0 121 1 126 23 135 33 13 37 12 47 -16z m-1320 -34 c0 -11 -4 -20
-10 -20 -5 0 -10 9 -10 20 0 11 5 20 10 20 6 0 10 -9 10 -20z m44 -139 c2
-111 -5 -147 -18 -103 -9 29 -11 206 -2 220 14 24 17 6 20 -117z m1066 104 c0
-14 -4 -25 -10 -25 -11 0 -14 33 -3 43 11 11 13 8 13 -18z m-1110 -110 c0 -57
-4 -95 -10 -95 -6 0 -10 38 -10 95 0 57 4 95 10 95 6 0 10 -38 10 -95z m1190
-5 c0 -53 -4 -90 -10 -90 -6 0 -10 30 -10 70 0 40 -4 70 -10 70 -6 0 -10 -31
-10 -74 0 -41 -4 -78 -10 -81 -6 -4 -10 28 -10 90 0 57 4 94 9 90 5 -3 12 -1
16 5 3 5 13 10 21 10 11 0 14 -18 14 -90z m-910 49 c0 -10 -4 -19 -10 -19 -5
0 -10 12 -10 26 0 14 4 23 10 19 6 -3 10 -15 10 -26z m-170 2 c5 -11 10 -59
10 -107 0 -76 -2 -85 -15 -74 -8 7 -15 9 -15 5 0 -4 -7 -2 -15 5 -9 8 -15 30
-15 57 0 36 4 46 20 50 11 3 20 14 20 25 0 15 -5 18 -22 13 -17 -6 -20 -4 -15
10 4 9 7 21 7 26 0 17 29 9 40 -10z m1000 -80 c0 -50 -4 -93 -10 -96 -6 -4
-10 28 -10 89 0 57 4 96 10 96 6 0 10 -36 10 -89z m-944 66 c7 3 16 -2 20 -10
3 -8 13 -13 23 -10 13 3 20 -2 24 -19 11 -38 8 -178 -3 -178 -6 0 -10 35 -10
85 0 50 -4 85 -10 85 -6 0 -10 -32 -10 -75 0 -43 -4 -75 -10 -75 -6 0 -10 33
-10 80 0 126 -19 102 -33 -40 -2 -19 -4 12 -5 70 0 58 2 100 4 93 3 -7 12 -9
20 -6z m902 -85 c2 -59 -1 -92 -8 -92 -6 0 -10 30 -10 76 0 47 -4 73 -10 69
-5 -3 -10 -40 -10 -81 0 -43 -4 -74 -10 -74 -6 0 -10 30 -10 70 0 39 -4 70 -9
70 -15 0 -21 -28 -21 -96 0 -35 -3 -64 -7 -64 -9 0 -8 178 1 187 3 4 6 0 6 -7
0 -9 5 -8 13 5 8 10 19 15 26 11 6 -4 14 0 17 9 4 9 12 14 18 12 7 -2 12 -39
14 -95z m-245 48 c-7 -28 -13 -25 -13 6 0 14 4 23 9 20 5 -3 7 -15 4 -26z m41
5 c-4 -15 -2 -25 5 -25 14 0 15 -37 1 -45 -14 -9 -12 -91 2 -115 10 -15 10
-22 0 -32 -20 -20 -26 0 -28 97 -2 103 3 145 17 145 5 0 7 -11 3 -25z m-403
-4 c23 -18 24 -26 24 -130 0 -122 -6 -138 -48 -122 l-27 11 0 130 c0 141 4
149 51 111z m334 -8 c-3 -16 -9 -64 -15 -108 -21 -158 -31 -174 -48 -72 -20
119 -25 177 -14 177 6 0 13 -26 17 -57 12 -107 21 -116 29 -28 4 44 10 88 12
98 8 28 24 20 19 -10z m-516 -88 c-1 -52 -6 -95 -11 -95 -4 0 -8 43 -8 95 0
60 4 95 11 95 6 0 9 -34 8 -95z m665 79 c3 -9 6 -48 6 -87 0 -68 -2 -73 -27
-84 -33 -16 -36 -13 -36 37 0 28 7 48 22 64 20 21 28 46 15 46 -4 0 -13 -8
-20 -17 -13 -17 -13 -17 -14 0 0 45 41 76 54 41z m-634 -4 c0 -5 7 -7 15 -4
10 4 18 -3 25 -21 13 -34 13 -175 0 -175 -6 0 -10 33 -10 79 0 44 -4 82 -9 85
-14 9 -21 -20 -21 -90 0 -41 -4 -63 -10 -59 -6 3 -10 48 -10 101 0 56 4 94 10
94 6 0 10 -4 10 -10z m510 -115 c0 -52 -4 -95 -9 -95 -5 0 -8 24 -7 53 2 28 4
71 5 95 2 82 11 41 11 -53z"/>
<path d="M8330 5306 c-3 -2 -4 -81 -2 -174 l3 -170 26 -5 26 -5 -5 107 -5 106
21 -70 c28 -92 47 -97 70 -15 9 33 18 60 20 60 1 0 0 -49 -2 -110 -3 -73 -1
-110 6 -110 6 0 17 -3 26 -6 14 -5 16 14 16 175 0 190 2 181 -42 185 -7 1 -22
-32 -34 -74 -12 -41 -24 -68 -27 -60 -3 8 -16 49 -29 90 -18 58 -27 76 -43 78
-12 2 -23 1 -25 -2z"/>
<path d="M8560 5077 c0 -150 2 -176 16 -181 44 -17 45 -16 42 172 l-3 177 -27
3 -28 3 0 -174z"/>
<path d="M8648 5052 l3 -179 53 -16 c68 -22 68 -22 64 10 -2 21 -10 29 -35 37
l-33 9 -2 156 -3 156 -25 3 -25 3 3 -179z"/>
<path d="M8793 5108 c4 -46 7 -127 7 -181 0 -92 1 -98 23 -106 22 -8 22 -7 27
78 l5 86 18 -33 c10 -18 20 -61 24 -96 6 -64 14 -75 57 -76 16 0 0 134 -22
183 l-22 49 26 60 c28 68 26 88 -10 88 -21 0 -28 -9 -48 -62 l-23 -63 -5 75
c-5 74 -5 75 -34 78 l-29 4 6 -84z"/>
<path d="M9710 3825 c0 -66 3 -85 14 -85 20 0 26 23 26 101 0 62 -2 69 -20 69
-18 0 -20 -7 -20 -85z"/>
<path d="M8520 3685 c0 -14 5 -25 10 -25 6 0 10 11 10 25 0 14 -4 25 -10 25
-5 0 -10 -11 -10 -25z"/>
<path d="M8870 3630 c0 -83 1 -90 20 -90 18 0 20 7 20 78 0 72 -9 102 -32 102
-4 0 -8 -40 -8 -90z"/>
<path d="M9350 3627 c-14 -29 -7 -48 11 -30 6 6 9 21 7 34 l-4 24 -14 -28z"/>
<path d="M9722 5328 c-5 -7 -18 -38 -27 -68 -27 -87 -29 -89 -35 -19 -5 64 -6
66 -27 58 -23 -8 -23 -11 -23 -179 0 -174 2 -184 39 -161 10 7 13 30 12 86 -1
59 1 76 11 73 21 -7 38 -50 38 -95 0 -48 -1 -47 34 -33 23 8 26 15 26 58 0 32
-8 65 -24 96 l-24 48 24 64 c13 36 24 69 24 74 0 14 -36 12 -48 -2z"/>
<path d="M9483 5249 c-23 -8 -23 -11 -23 -179 0 -93 3 -170 7 -170 29 0 114
37 119 52 9 28 -3 39 -32 28 -14 -6 -29 -8 -34 -5 -4 3 -9 67 -9 142 -1 76 -3
138 -4 139 -1 1 -12 -2 -24 -7z"/>
<path d="M9388 5219 c-16 -9 -18 -29 -18 -181 l0 -170 23 6 c12 3 25 6 30 6 4
0 7 79 7 175 0 183 -1 188 -42 164z"/>
<path d="M9308 5193 c-10 -2 -22 -20 -27 -41 -6 -20 -17 -62 -25 -92 -8 -30
-16 -48 -19 -40 -47 136 -44 131 -75 124 -22 -6 -22 -9 -22 -181 0 -156 2
-174 16 -169 9 3 20 6 26 6 7 0 9 37 6 105 -2 58 -3 105 -2 105 2 0 10 -24 20
-52 20 -63 18 -60 37 -53 9 4 22 34 32 76 10 38 18 69 20 69 2 0 0 -48 -3
-106 l-5 -106 24 7 c13 4 27 10 32 14 8 8 -3 342 -12 340 -3 -1 -14 -3 -23 -6z"/>
<path d="M10040 3202 c-20 -9 -53 -23 -76 -29 -64 -20 -116 -72 -154 -155 -18
-40 -34 -74 -34 -75 -1 -1 -152 -18 -336 -38 -184 -19 -369 -40 -410 -45 -41
-5 -104 -12 -140 -16 -53 -4 -338 -35 -645 -69 -27 -3 -218 -24 -424 -45 -206
-22 -376 -42 -379 -45 -4 -4 17 -1369 21 -1371 1 0 292 -20 647 -43 354 -23
772 -51 929 -62 156 -11 284 -18 285 -17 1 2 131 395 290 873 159 479 300 891
313 917 13 26 34 55 48 64 22 14 26 14 47 0 26 -18 80 -21 110 -5 11 6 26 26
34 45 20 48 -1 99 -50 119 -43 18 -35 18 -76 -3z m-290 -379 c0 -4 -26 -85
-57 -180 l-58 -173 -63 0 c-56 0 -63 2 -58 18 2 9 21 80 41 157 20 77 38 148
41 157 5 16 18 19 127 26 15 1 27 -1 27 -5z m-210 -19 c0 -4 -19 -80 -42 -170
l-42 -164 -48 0 c-32 0 -48 4 -48 13 1 6 16 80 34 162 l33 150 39 6 c58 9 74
10 74 3z m-175 -46 c-4 -18 -19 -89 -33 -158 l-27 -125 -44 -3 c-40 -3 -43 -1
-38 17 3 11 15 79 28 152 25 141 28 147 92 148 26 1 28 -1 22 -31z m-145 10
c0 -7 -11 -73 -25 -147 -14 -74 -25 -138 -25 -143 0 -4 -18 -8 -41 -8 -38 0
-41 2 -36 23 3 12 13 79 23 149 l18 127 31 4 c16 2 36 5 43 5 6 1 12 -4 12
-10z m-140 -12 c0 -2 -9 -61 -20 -132 -11 -71 -20 -135 -20 -141 0 -8 -15 -13
-41 -13 -38 0 -41 2 -36 23 3 12 11 74 18 137 6 63 17 118 23 122 11 8 76 11
76 4z m-143 -53 c-4 -27 -12 -90 -18 -140 l-12 -93 -40 0 -40 0 6 48 c4 26 9
86 13 134 l7 87 31 4 c17 2 37 5 45 5 11 2 12 -9 8 -45z m-140 -20 c-3 -27 -9
-85 -13 -130 l-7 -83 -39 0 -40 0 6 48 c3 26 8 84 12 130 l6 82 40 0 41 0 -6
-47z m-131 10 c-2 -16 -8 -72 -11 -125 l-7 -98 -39 0 -39 0 0 43 c0 24 3 78 6
120 7 81 9 83 67 86 26 1 28 -2 23 -26z m-145 -108 l-6 -110 -37 -3 -38 -3 0
69 c0 38 3 90 6 115 6 42 9 46 38 49 17 2 34 1 37 -2 3 -3 3 -54 0 -115z
m-131 -5 l0 -110 -35 0 -35 0 0 103 c0 57 3 107 7 110 3 4 19 7 35 7 l28 0 0
-110z m-122 -2 l-3 -103 -32 -3 -33 -3 0 100 c0 104 2 109 48 110 22 1 23 0
20 -101z m-118 -8 l0 -100 -29 0 c-17 0 -32 4 -36 9 -3 5 -2 48 1 95 7 86 10
91 52 95 9 1 12 -25 12 -99z m-120 -5 l0 -95 -35 0 -35 0 0 89 0 90 33 4 c17
2 33 5 35 5 1 1 2 -41 2 -93z m-120 -10 l0 -85 -35 0 -35 0 0 85 0 85 35 0 35
0 0 -85z m-130 -5 l0 -80 -30 0 -30 0 0 80 0 80 30 0 30 0 0 -80z m-115 -5 l0
-70 -52 -3 -53 -3 0 60 c0 34 0 64 0 69 -1 7 63 20 90 18 12 -1 15 -16 15 -71z
m3 -287 l-3 -163 -50 0 -50 0 -3 163 -2 162 55 0 55 0 -2 -162z m113 75 c0
-49 1 -122 2 -163 l2 -75 -30 0 -30 1 -3 162 -2 162 30 0 30 0 1 -87z m129
-25 c0 -62 -3 -137 -6 -165 -6 -50 -8 -53 -35 -53 l-29 0 0 165 0 165 35 0 35
0 0 -112z m118 -50 l-3 -163 -32 -2 -33 -3 0 165 0 165 35 0 35 0 -2 -162z
m118 70 c-3 -50 -6 -124 -6 -164 l0 -73 -30 1 -30 1 0 164 0 163 36 0 37 0 -7
-92z m112 -70 l-3 -163 -30 0 c-34 0 -31 -21 -27 210 l2 115 30 0 30 0 -2
-162z m122 43 c0 -65 -3 -139 -6 -165 -6 -43 -9 -46 -36 -46 l-29 0 2 158 c0
86 3 160 6 165 2 4 17 7 34 7 l29 0 0 -119z m126 7 c-4 -62 -9 -137 -12 -165
-5 -51 -7 -53 -35 -53 l-29 0 0 113 c0 61 3 136 6 165 7 51 7 52 41 52 l35 0
-6 -112z m130 5 c-4 -60 -9 -134 -13 -165 l-6 -57 -33 1 -34 1 0 51 c0 28 3
102 7 164 l6 112 40 0 40 0 -7 -107z m134 85 c-1 -18 -27 -293 -29 -305 -2 -7
-60 -2 -64 5 -5 8 10 237 19 290 4 29 8 32 39 32 30 0 35 -3 35 -22z m130 9
c0 -15 -28 -238 -35 -283 -5 -26 -10 -31 -35 -32 -36 -1 -35 -8 -18 190 l11
138 39 0 c24 0 38 -5 38 -13z m126 -14 c-5 -25 -46 -291 -46 -299 0 -2 -13 -4
-30 -4 -36 0 -36 -5 -13 188 l17 142 39 0 c37 0 38 -1 33 -27z m130 10 c-3
-10 -17 -80 -30 -156 -14 -76 -28 -143 -32 -148 -3 -5 -18 -8 -32 -6 -20 3
-26 9 -25 23 2 10 12 78 23 151 11 72 20 136 20 142 0 6 18 11 41 11 34 0 39
-3 35 -17z m134 10 c-1 -5 -15 -77 -33 -162 -31 -144 -35 -154 -57 -158 -42
-6 -49 2 -39 49 4 24 18 96 30 161 l21 117 39 0 c21 0 39 -3 39 -7z m146 -10
c-2 -10 -21 -81 -41 -157 -20 -77 -38 -142 -40 -146 -8 -13 -75 -10 -75 3 0
13 58 284 65 305 3 7 23 12 50 12 39 0 46 -3 41 -17z m132 -135 c-28 -84 -55
-159 -61 -166 -11 -13 -86 -13 -89 1 -1 4 16 77 38 162 l39 155 62 0 61 0 -50
-152z m-1898 -388 l0 -160 -50 0 -50 0 0 129 c0 71 -3 143 -6 160 l-6 31 56 0
56 0 0 -160z m120 0 l0 -160 -35 0 -35 0 0 160 0 160 35 0 35 0 0 -160z m110
0 l0 -160 -30 0 -30 0 0 160 0 160 30 0 30 0 0 -160z m126 123 c-3 -21 -6 -93
-6 -160 l0 -123 -35 0 c-41 0 -40 -8 -28 198 l6 122 35 0 c34 0 35 0 28 -37z
m114 -70 c0 -60 -3 -132 -6 -160 -7 -51 -8 -53 -37 -53 l-30 0 7 77 c3 42 6
114 6 160 l0 83 30 0 30 0 0 -107z m110 -53 l0 -160 -30 0 -30 0 0 160 0 160
30 0 30 0 0 -160z m120 98 c0 -35 -3 -107 -7 -160 l-6 -98 -29 0 -28 0 0 114
c0 62 3 134 6 160 6 43 9 46 35 46 29 0 29 0 29 -62z m116 -25 c-4 -49 -9
-121 -12 -160 l-6 -73 -30 0 -31 0 7 46 c3 26 6 98 6 160 l0 114 36 0 36 0 -6
-87z m117 -55 c-6 -79 -12 -151 -12 -160 -1 -14 -10 -18 -35 -18 -33 0 -35 1
-31 33 3 17 7 89 11 160 l6 127 37 0 36 0 -12 -142z m131 110 c-6 -47 -24
-248 -24 -270 0 -14 -8 -18 -35 -18 -31 0 -35 3 -31 23 3 12 8 69 11 127 9
164 11 170 50 170 32 0 34 -1 29 -32z m116 15 c0 -10 -7 -82 -16 -160 l-17
-143 -28 0 c-16 0 -29 3 -29 8 0 4 7 70 15 147 8 77 15 146 15 153 0 7 13 12
30 12 22 0 30 -5 30 -17z m114 -30 c-41 -283 -37 -268 -67 -271 -15 -2 -27 1
-27 5 0 13 29 242 35 281 5 28 10 32 36 32 l30 0 -7 -47z m121 25 c-2 -13 -14
-75 -25 -138 -31 -170 -27 -160 -55 -160 -14 0 -25 3 -25 8 0 4 9 76 22 160
l22 152 33 0 c29 0 33 -3 28 -22z m124 15 c0 -5 -15 -75 -33 -158 l-32 -150
-31 -3 c-31 -3 -31 -3 -23 35 4 21 18 93 30 161 l22 122 34 0 c19 0 34 -3 33
-7z m127 -10 c-11 -40 -76 -293 -76 -298 0 -3 -13 -5 -30 -5 -16 0 -30 3 -30
8 0 4 14 76 32 160 l31 152 39 0 c33 0 38 -3 34 -17z m152 5 c-2 -7 -24 -79
-49 -160 l-44 -148 -41 0 -42 0 42 160 41 160 49 0 c34 0 47 -4 44 -12z
m-1818 -499 l0 -142 -37 7 c-21 3 -43 6 -49 6 -8 0 -12 41 -13 135 l-2 135 51
0 50 0 0 -141z m118 -1 l3 -138 -36 0 -35 0 0 141 0 140 33 -3 32 -3 3 -137z
m112 -3 l0 -145 -30 0 -30 0 0 145 0 145 30 0 30 0 0 -145z m120 -5 l0 -150
-35 0 -35 0 0 143 c0 79 3 147 7 150 3 4 19 7 35 7 l28 0 0 -150z m110 2 c0
-82 -2 -151 -5 -154 -3 -3 -17 -3 -30 0 l-25 4 0 142 c0 79 3 146 7 149 3 4
17 7 30 7 l23 0 0 -148z m110 -7 l0 -155 -30 0 -30 0 0 148 c0 82 3 152 7 155
3 4 17 7 30 7 l23 0 0 -155z m116 78 c-3 -42 -6 -114 -6 -160 l0 -83 -30 0
-30 0 0 93 c0 50 3 122 7 160 6 66 6 67 36 67 l30 0 -7 -77z m110 20 c-3 -32
-8 -107 -12 -166 -6 -104 -7 -108 -27 -101 -12 4 -24 8 -25 9 -2 2 -1 74 3
159 l8 156 29 0 29 0 -5 -57z m115 53 c3 -3 -1 -74 -8 -158 -6 -84 -12 -156
-12 -160 -1 -5 -15 -8 -32 -8 l-31 0 6 48 c3 26 8 100 12 165 l6 117 27 0 c15
0 30 -2 32 -4z m119 -20 c0 -27 -17 -210 -26 -273 -4 -37 -9 -43 -29 -43 -13
0 -26 3 -28 8 -2 4 2 77 9 162 7 85 13 158 13 163 1 4 15 7 31 7 25 0 30 -4
30 -24z m110 22 c0 -2 -9 -73 -20 -158 -11 -85 -20 -161 -20 -167 0 -7 -10
-13 -23 -13 l-22 0 16 168 c9 92 17 168 18 170 0 1 12 2 26 2 14 0 25 -1 25
-2z m100 -18 c0 -20 -36 -264 -46 -307 -3 -15 -12 -23 -25 -23 -18 0 -20 4
-15 38 3 20 13 96 22 167 9 72 18 133 21 138 10 16 43 7 43 -13z m106 -7 c-3
-16 -17 -93 -32 -173 -14 -80 -28 -148 -31 -152 -9 -16 -33 -7 -33 13 0 21 37
277 45 317 4 16 13 22 31 22 23 0 25 -3 20 -27z m112 10 c-3 -10 -20 -91 -39
-180 -32 -154 -35 -163 -57 -163 -20 0 -23 4 -18 28 3 15 17 92 32 172 14 80
28 148 31 153 2 4 16 7 30 7 19 0 24 -4 21 -17z m112 10 c0 -5 -21 -88 -46
-185 -40 -150 -50 -178 -65 -178 -11 0 -19 6 -19 13 0 14 67 324 75 345 5 13
55 17 55 5z m120 -5 c0 -7 -26 -90 -57 -185 -51 -155 -59 -173 -79 -173 -22 0
-22 1 22 173 25 94 47 178 49 185 6 16 65 16 65 0z"/>
<path d="M885 2735 c-214 -47 -457 -220 -589 -418 -89 -135 -183 -374 -228
-577 -21 -95 -23 -129 -22 -360 1 -230 4 -268 27 -385 38 -197 84 -303 180
-418 39 -47 40 -48 86 -41 25 4 47 7 48 8 1 1 -15 54 -37 117 -79 229 -110
416 -110 652 1 309 61 581 183 823 83 164 183 278 331 375 137 90 362 169 483
169 l38 0 -25 25 c-41 40 -243 57 -365 30z"/>
<path d="M1853 2699 c-18 -5 -40 -22 -49 -37 -9 -15 -26 -40 -37 -56 l-20 -29
27 -19 c14 -11 26 -25 26 -32 0 -7 18 -20 39 -29 22 -10 51 -34 66 -53 l27
-36 35 34 c52 48 65 86 53 148 -12 66 -24 87 -60 105 -32 17 -59 18 -107 4z"/>
<path d="M1330 2676 c0 -4 7 -20 15 -36 8 -16 20 -64 26 -107 7 -43 13 -79 14
-81 1 -1 20 4 42 12 50 18 196 36 286 36 37 0 67 4 67 9 0 6 -22 22 -50 38
-49 28 -62 43 -37 43 17 1 50 30 73 64 l19 30 -24 -7 c-13 -3 -84 -11 -157
-18 -131 -12 -154 -11 -251 17 -13 3 -23 3 -23 0z"/>
<path d="M1115 2633 c-212 -45 -417 -170 -547 -332 -164 -205 -271 -512 -299
-858 -18 -225 18 -507 96 -749 20 -62 42 -119 48 -127 7 -8 31 -18 53 -22 l41
-6 11 43 c31 122 34 181 21 428 -14 294 -1 450 52 617 115 362 300 563 636
692 45 18 87 38 93 47 17 20 8 197 -13 247 -16 36 -17 37 -69 36 -29 0 -84 -7
-123 -16z"/>
<path d="M1740 2454 c-16 -5 -33 -30 -107 -151 -24 -40 -65 -90 -89 -111 l-46
-39 55 -11 c31 -6 82 -25 115 -41 l59 -30 12 53 c6 28 40 110 76 182 38 77 60
133 55 138 -10 10 -107 17 -130 10z"/>
<path d="M1455 2426 c-61 -19 -85 -35 -85 -55 0 -17 -52 -71 -68 -71 -4 0 -13
-4 -21 -9 -11 -7 -10 -14 8 -40 28 -39 36 -39 57 1 9 18 53 67 97 110 81 79
83 86 12 64z"/>
<path d="M4180 2395 c-299 -48 -597 -202 -820 -425 -103 -103 -172 -197 -232
-317 -46 -91 -52 -111 -56 -181 -5 -90 5 -117 65 -176 157 -156 480 -149 872
18 250 106 509 320 659 545 75 112 104 185 110 279 4 63 1 79 -22 125 -14 29
-40 61 -58 74 -100 66 -315 90 -518 58z m320 -51 c71 -16 120 -44 120 -70 0
-8 -24 -29 -53 -48 -107 -68 -570 -336 -575 -332 -2 3 14 26 35 53 22 26 93
118 158 203 65 85 129 167 143 183 31 32 68 35 172 11z m-247 -10 c3 -3 -6
-25 -21 -48 -35 -53 -271 -388 -283 -400 -5 -6 -9 64 -9 171 0 157 2 184 18
202 31 39 270 99 295 75z m-363 -108 c6 -8 13 -57 16 -108 2 -51 6 -130 9
-176 l4 -83 -32 27 c-132 111 -237 210 -237 224 0 24 27 46 112 91 79 41 109
47 128 25z m741 -46 c29 -16 25 -84 -8 -151 l-28 -54 -255 -52 c-391 -79 -383
-86 -85 83 247 140 330 183 348 184 5 0 17 -5 28 -10z m-979 -132 c83 -65 238
-201 234 -205 -4 -4 -329 49 -414 67 -46 10 -53 15 -50 33 3 22 143 147 164
147 7 0 36 -19 66 -42z m926 -141 c2 -10 1 -29 -2 -42 -9 -37 -110 -159 -149
-180 l-35 -19 -189 69 c-103 38 -199 73 -213 78 -20 8 22 19 235 62 277 57
347 63 353 32z m-935 -52 c114 -19 212 -35 219 -35 28 0 -8 -13 -128 -46 -224
-62 -417 -105 -454 -102 -24 2 -36 9 -38 21 -5 25 31 95 79 150 51 59 47 58
322 12z m472 -119 c88 -35 172 -69 188 -76 53 -25 34 -59 -84 -150 -71 -55
-98 -70 -125 -70 -26 0 -36 6 -48 28 -13 25 -106 311 -106 325 0 12 14 8 175
-57z m-167 -58 c43 -153 59 -238 52 -268 -3 -17 -20 -32 -50 -47 -85 -43 -319
-89 -333 -66 -6 10 282 493 294 493 3 0 20 -51 37 -112z m-194 35 c-140 -100
-415 -281 -480 -315 -72 -37 -87 -33 -104 33 -23 86 13 158 92 185 87 29 531
152 552 153 11 1 -15 -23 -60 -56z m93 25 c-8 -13 -75 -115 -149 -227 -73
-112 -144 -212 -158 -223 -22 -18 -35 -20 -102 -15 -81 5 -151 31 -156 57 -1
8 21 31 50 52 29 20 159 113 288 207 129 93 237 170 239 170 2 1 -3 -9 -12
-21z"/>
<path d="M1121 2225 c-41 -20 -102 -56 -137 -82 -55 -40 -67 -56 -104 -132
-133 -275 -143 -503 -34 -830 130 -392 401 -727 808 -1001 77 -51 80 -52 105
-37 45 27 47 39 13 110 -42 90 -69 128 -218 303 -155 182 -228 282 -288 394
-96 182 -154 421 -142 595 12 170 53 291 171 503 32 59 34 65 21 90 -20 38
-95 122 -110 122 -6 0 -45 -16 -85 -35z"/>
<path d="M5856 2225 c-21 -7 -48 -22 -59 -33 -20 -17 -25 -18 -52 -6 -42 18
-100 17 -116 -2 -8 -9 -12 -35 -10 -65 4 -83 3 -113 -4 -147 -6 -28 -3 -37 33
-72 22 -22 54 -43 71 -46 36 -8 48 -21 32 -37 -6 -6 -11 -26 -11 -44 0 -45 48
-77 100 -68 67 13 72 11 92 -25 24 -42 20 -136 -7 -177 -17 -25 -17 -27 1 -40
11 -8 31 -21 46 -29 l27 -14 21 58 c22 59 29 150 16 210 -7 30 -6 32 19 32 14
0 28 7 31 15 6 13 -31 101 -57 136 -10 14 -6 24 24 60 50 57 48 82 -9 132 -27
23 -55 61 -68 91 -34 76 -60 91 -120 71z"/>
<path d="M6380 2133 c-32 -23 -68 -63 -75 -85 -5 -13 -17 -18 -41 -18 -24 0
-43 -8 -61 -26 -24 -24 -25 -30 -20 -100 4 -57 2 -74 -7 -74 -8 0 -25 -9 -40
-21 -40 -31 -35 -72 14 -121 22 -22 40 -44 40 -50 0 -15 -50 -109 -97 -183
l-45 -69 28 -23 c16 -13 32 -23 35 -23 3 0 48 62 99 139 l95 138 43 -5 c40 -4
45 -2 87 42 31 32 53 46 71 46 16 0 39 13 60 34 28 28 34 42 34 77 1 40 5 47
40 71 44 31 61 73 49 126 -14 64 -71 102 -155 102 -31 0 -54 7 -71 20 -31 25
-51 25 -83 3z"/>
<path d="M1430 2093 c-60 -22 -189 -216 -219 -331 -35 -128 -33 -393 4 -537
52 -205 305 -548 540 -730 167 -130 390 -250 601 -322 106 -37 113 -38 254
-38 179 0 192 3 207 52 6 21 10 39 8 41 -1 2 -53 14 -115 28 -628 141 -1190
608 -1330 1104 -27 97 -37 278 -21 391 14 95 52 222 87 291 13 26 24 50 24 53
0 6 -20 5 -40 -2z"/>
<path d="M1480 2061 c-34 -67 -78 -212 -91 -301 -16 -112 -7 -305 20 -395 61
-213 217 -442 430 -631 230 -204 522 -358 826 -434 185 -46 177 -46 208 -3
l27 37 -33 34 c-66 69 -157 132 -312 217 -320 175 -478 297 -611 474 -180 240
-242 497 -189 800 l19 114 -34 29 c-48 40 -149 88 -198 95 -39 5 -41 4 -62
-36z"/>
<path d="M4800 2052 c0 -12 -11 -50 -25 -83 -80 -198 -339 -469 -590 -617
-149 -88 -384 -170 -566 -197 -114 -17 -278 -8 -342 19 l-38 15 20 -28 c52
-73 232 -208 347 -261 106 -50 177 -64 314 -64 107 1 138 4 214 28 251 76 503
262 615 454 110 188 141 432 86 664 -18 76 -35 109 -35 70z"/>
<path d="M768 1902 c-119 -206 -166 -354 -183 -567 -7 -91 11 -166 84 -355
100 -259 309 -541 551 -744 132 -111 255 -172 385 -192 44 -6 48 -5 74 27 l28
34 -81 54 c-266 176 -498 411 -639 647 -20 34 -64 117 -96 185 -100 210 -139
349 -148 526 -7 146 6 238 52 378 19 55 33 101 31 102 -1 2 -27 -41 -58 -95z"/>
<path d="M2875 1731 c-60 -15 -105 -44 -210 -139 -101 -91 -133 -133 -165
-218 -8 -21 2 -16 71 32 121 85 157 96 332 102 120 4 147 7 147 19 0 8 14 49
30 90 17 42 29 77 27 79 -7 8 -161 44 -181 43 -12 -1 -34 -4 -51 -8z"/>
<path d="M6745 1587 c-69 -24 -157 -73 -258 -145 -107 -76 -150 -90 -244 -78
-53 7 -60 4 -86 -36 -16 -26 -16 -27 11 -46 27 -20 27 -20 62 4 57 40 138 26
160 -27 24 -56 82 -76 128 -43 21 14 24 14 53 -10 45 -38 109 -38 149 -1 22
21 30 23 65 15 52 -12 103 -3 116 22 6 11 9 42 8 70 -3 45 0 53 25 74 18 16
40 24 65 24 97 0 93 113 -7 161 -54 27 -189 35 -247 16z"/>
<path d="M5542 1508 c-61 -7 -222 -71 -222 -88 0 -5 12 -11 26 -14 65 -17 212
-90 305 -151 234 -156 454 -441 517 -670 l19 -68 20 29 c106 151 121 353 38
539 -47 107 -135 208 -251 287 -162 110 -304 153 -452 136z"/>
<path d="M2780 1460 c-25 -4 -62 -15 -82 -23 -37 -16 -153 -90 -161 -104 -3
-5 25 -7 62 -5 59 3 79 -2 191 -44 115 -44 132 -48 217 -48 50 -1 94 2 98 5 3
4 -10 37 -29 74 -26 47 -36 79 -36 111 l0 44 -107 -1 c-60 -1 -128 -5 -153 -9z"/>
<path d="M5226 1337 c-59 -69 -105 -169 -119 -256 -9 -62 -8 -81 12 -161 12
-50 49 -158 82 -240 32 -82 59 -164 59 -182 0 -41 -18 -76 -71 -139 -50 -60
-77 -75 -160 -88 -73 -12 -107 -33 -131 -82 -25 -51 -22 -54 18 -19 50 43 70
49 161 47 103 -2 170 27 234 103 24 29 60 71 79 92 l35 39 59 -26 c159 -70
379 -91 506 -47 80 28 160 84 160 113 0 78 -69 239 -158 370 -165 244 -386
417 -644 505 -39 13 -73 24 -74 24 -1 0 -23 -24 -48 -53z"/>
<path d="M3120 1200 c-14 -4 -41 -8 -61 -9 -46 -1 -64 -21 -130 -146 l-53 -99
70 55 c92 74 155 116 209 140 44 20 45 20 29 44 -17 26 -24 28 -64 15z"/>
<path d="M8539 1186 c-4 -4 -3 -21 0 -39 7 -31 9 -32 69 -39 34 -4 156 -12
271 -17 318 -17 338 -23 526 -163 183 -136 235 -200 235 -284 l0 -37 -267 7
c-910 23 -1745 35 -1811 27 -110 -14 -222 -77 -222 -126 0 -19 33 -44 67 -51
24 -5 37 0 65 25 19 17 46 35 61 40 27 10 193 19 200 11 2 -3 18 -40 35 -83
l31 -78 -31 -44 c-36 -52 -48 -130 -28 -190 20 -60 87 -121 148 -134 141 -30
262 65 262 206 0 85 -69 182 -140 198 -23 5 -29 15 -43 63 -9 31 -14 58 -12
60 2 2 226 -1 497 -7 271 -6 649 -14 841 -17 l347 -7 0 -28 c0 -15 -5 -29 -12
-31 -8 -3 -7 -13 5 -37 16 -32 16 -34 -13 -69 -63 -79 -58 -187 12 -266 128
-146 362 -56 363 139 0 83 -36 144 -111 186 -37 21 -54 37 -54 51 0 18 -4 19
-49 13 l-49 -7 1 125 1 124 -34 57 c-71 117 -168 202 -370 324 -101 61 -131
67 -420 82 -107 5 -233 13 -280 16 -47 3 -88 3 -91 0z m-498 -897 c56 -79 -1
-199 -94 -199 -40 0 -93 27 -112 56 -18 28 -22 93 -8 119 9 15 13 10 32 -29
25 -51 73 -96 101 -96 28 0 42 34 43 111 1 38 5 69 9 69 4 0 17 -14 29 -31z
m1844 -1 c24 -28 27 -39 22 -81 -12 -129 -183 -160 -233 -42 -17 42 -17 61 0
100 l13 30 23 -45 c58 -116 109 -144 131 -72 6 21 10 62 8 90 -2 29 -1 52 3
52 3 0 18 -14 33 -32z"/>
<path d="M3137 1082 c-48 -26 -125 -78 -172 -117 l-85 -70 89 -3 c138 -4 317
44 367 99 16 17 14 21 -43 79 -33 33 -62 60 -64 60 -2 0 -43 -22 -92 -48z"/>
<path d="M353 513 c-62 -12 17 -57 82 -47 51 7 78 30 54 45 -14 9 -94 10 -136
2z"/>
<path d="M2887 259 c-45 -68 -54 -99 -32 -99 27 0 73 54 81 94 11 63 -10 65
-49 5z"/>
<path d="M1746 94 c-31 -25 -56 -49 -56 -55 0 -5 13 -9 30 -9 35 0 110 62 110
91 0 30 -24 22 -84 -27z"/>
</g>
</svg>
