<?xml version="1.0" standalone="no"?>
<!DOCTYPE svg PUBLIC "-//W3C//DTD SVG 20010904//EN"
 "http://www.w3.org/TR/2001/REC-SVG-20010904/DTD/svg10.dtd">
<svg version="1.0" xmlns="http://www.w3.org/2000/svg"
 width="375.000000pt" height="375.000000pt" viewBox="0 0 375.000000 375.000000"
 preserveAspectRatio="xMidYMid meet">

<g transform="translate(0.000000,375.000000) scale(0.100000,-0.100000)"
fill="#000000" stroke="none">
<path d="M1058 3473 c123 -2 321 -2 440 0 119 1 19 2 -223 2 -242 0 -340 -1
-217 -2z"/>
<path d="M753 3451 c-53 -24 -98 -86 -113 -154 -8 -36 -11 -456 -10 -1433 0
-1553 -5 -1452 74 -1530 69 -70 58 -69 731 -69 487 0 606 3 630 14 38 17 17
26 -27 12 -18 -6 -57 -13 -87 -17 -48 -6 -54 -5 -48 9 4 11 1 17 -8 17 -8 0
-14 -6 -13 -12 2 -10 -108 -13 -527 -13 l-530 0 -55 27 c-65 32 -92 65 -114
138 -14 48 -16 203 -16 1435 0 1508 -2 1445 56 1515 27 31 68 57 114 71 20 6
21 7 5 8 -11 0 -39 -8 -62 -18z"/>
<path d="M1698 3455 c-48 -17 -96 -54 -104 -77 -3 -10 -8 -16 -12 -14 -4 2 -9
-15 -12 -38 -8 -70 -6 -2829 3 -2869 11 -51 58 -102 115 -124 44 -17 91 -18
642 -18 l595 0 51 23 c73 33 104 69 112 128 8 56 10 2774 2 2848 -4 38 -12 56
-40 85 -70 72 -64 71 -725 70 -471 0 -597 -3 -627 -14z m226 -61 c9 -3 16 -18
16 -33 1 -63 44 -81 193 -81 62 0 106 -4 100 -8 -9 -6 -2 -19 26 -45 22 -20
44 -37 50 -37 6 0 11 -6 11 -13 0 -11 160 -98 240 -130 115 -46 161 -69 188
-94 14 -13 31 -23 39 -23 22 0 131 -120 138 -151 4 -17 13 -29 22 -29 10 0 14
-6 10 -19 -2 -11 3 -25 14 -35 11 -9 19 -22 19 -30 0 -8 7 -16 15 -20 13 -5
15 -98 13 -768 -1 -420 -5 -682 -8 -584 l-5 179 -60 31 c-81 42 -176 104 -280
183 -92 71 -157 103 -207 103 -21 0 -28 3 -20 9 14 8 -62 40 -143 60 -22 5
-76 19 -120 30 -95 25 -115 26 -115 6 0 -9 6 -12 16 -8 14 5 14 3 2 -16 -8
-14 -9 -24 -3 -29 6 -4 11 -41 12 -82 3 -107 38 -260 59 -260 3 0 2 5 -2 12
-4 7 -3 8 5 4 6 -4 9 -12 5 -17 -8 -13 31 -50 42 -41 4 4 4 -1 1 -10 -4 -10
-3 -18 1 -18 4 0 23 -14 42 -30 19 -17 41 -28 48 -25 7 3 11 1 8 -4 -7 -10
104 -107 117 -103 4 1 6 -1 3 -6 -2 -4 14 -26 37 -49 70 -67 137 -141 137
-150 0 -13 90 -106 128 -132 18 -13 31 -26 28 -29 -3 -2 -14 1 -23 9 -16 13
-17 12 -4 -4 8 -10 20 -16 28 -13 15 6 64 -14 58 -23 -2 -4 4 -7 13 -8 9 -1
44 -11 77 -22 32 -12 74 -22 92 -24 l33 -2 0 -104 c0 -98 -1 -103 -17 -89 -10
9 -34 24 -53 34 -19 11 -70 41 -113 68 -55 36 -74 52 -65 59 9 6 8 7 -5 3 -23
-7 -47 3 -47 20 0 8 -6 11 -17 7 -12 -5 -15 -2 -10 10 4 11 2 14 -8 11 -20 -8
-78 28 -62 39 8 5 5 7 -8 5 -11 -2 -47 9 -80 24 -33 15 -76 31 -95 34 -19 4
-39 10 -45 14 -10 6 -68 13 -110 13 -81 -1 -200 -14 -208 -22 -6 -6 -18 -11
-28 -11 -21 0 -184 -81 -226 -113 -18 -13 -30 -27 -26 -30 3 -4 -2 -7 -11 -7
-12 0 -16 -5 -12 -16 3 -8 2 -12 -3 -9 -6 3 -14 -3 -20 -12 -6 -10 -11 -13
-11 -7 0 5 3 15 8 20 4 6 -12 -10 -36 -35 -23 -25 -40 -51 -38 -58 3 -7 0 -12
-6 -10 -6 1 -13 -4 -16 -12 -3 -10 0 -11 9 -5 11 6 12 5 2 -7 -6 -8 -13 -27
-15 -44 -16 -121 -20 329 -15 1428 7 1361 5 1306 53 1348 11 9 33 21 49 27 33
11 164 16 189 6z m-318 -80 c-8 -21 -15 -34 -15 -28 -1 15 20 76 25 71 2 -2
-2 -21 -10 -43z m1463 -2826 c-6 -22 -12 -38 -14 -36 -3 2 0 20 5 39 6 21 11
546 12 1409 l3 1375 2 -1374 c2 -951 0 -1386 -8 -1413z m-1482 734 c-1 -372
-2 -67 -2 678 0 745 1 1050 2 677 2 -372 2 -982 0 -1355z m648 200 c-3 -3 -11
0 -18 7 -9 10 -8 11 6 5 10 -3 15 -9 12 -12z m-514 -719 c-12 -20 -14 -14 -5
12 4 9 9 14 11 11 3 -2 0 -13 -6 -23z m-74 -185 c-3 -7 -5 -2 -5 12 0 14 2 19
5 13 2 -7 2 -19 0 -25z m47 -59 c13 11 13 9 3 -13 -11 -24 -13 -24 -24 -9 -7
9 -13 22 -13 27 0 6 4 5 9 -3 8 -12 12 -12 25 -2z"/>
<path d="M1927 3296 c-4 -10 -1 -13 8 -9 8 3 12 9 9 14 -7 12 -11 11 -17 -5z"/>
<path d="M2720 2515 c0 -15 4 -24 10 -20 6 3 10 12 10 20 0 8 -4 17 -10 20 -6
4 -10 -5 -10 -20z"/>
<path d="M2533 2398 c-14 -16 -14 -18 8 -27 l24 -9 -28 -7 c-15 -4 -36 -5 -47
-2 -18 5 -35 -15 -22 -27 3 -4 5 -27 3 -51 l-3 -45 36 0 c35 0 36 -1 36 -40 0
-22 -4 -40 -10 -40 -5 0 -7 -7 -4 -15 4 -8 12 -15 20 -15 8 0 14 -8 14 -17 0
-15 2 -15 14 2 13 18 14 18 21 -4 4 -15 3 -26 -5 -31 -7 -5 -3 -13 15 -24 20
-13 23 -20 15 -35 -14 -26 22 -60 45 -41 8 7 22 9 32 6 9 -4 20 -1 24 6 12 19
44 -4 44 -31 0 -12 7 -26 15 -31 8 -6 10 -10 3 -10 -7 0 -9 -9 -4 -27 6 -21
13 -27 28 -25 11 2 23 -4 26 -13 4 -9 19 -15 36 -15 35 0 63 -36 37 -46 -21
-8 -3 -43 22 -42 9 0 26 -3 36 -7 18 -8 19 -5 14 36 -3 24 -2 67 3 94 8 49 8
48 4 -12 -3 -38 -1 -63 5 -63 6 0 10 96 10 260 0 224 -2 260 -15 260 -11 0
-15 -11 -15 -40 0 -36 -3 -40 -25 -40 -13 0 -29 8 -34 18 -10 16 -10 16 -11 0
0 -25 -16 -22 -49 10 -16 15 -38 33 -49 41 -20 14 -26 67 -10 88 13 17 -16 22
-140 25 -88 3 -106 0 -119 -14z m227 -32 c0 -11 -19 -15 -25 -6 -3 5 1 10 9
10 9 0 16 -2 16 -4z m-207 -53 c-7 -2 -21 -2 -30 0 -10 3 -4 5 12 5 17 0 24
-2 18 -5z m204 1 c-3 -3 -12 -4 -19 -1 -8 3 -5 6 6 6 11 1 17 -2 13 -5z m-110
-156 c-3 -7 -5 -2 -5 12 0 14 2 19 5 13 2 -7 2 -19 0 -25z m340 -70 c-2 -13
-4 -3 -4 22 0 25 2 35 4 23 2 -13 2 -33 0 -45z m-27 -310 c0 -13 -23 -5 -28
10 -2 7 2 10 12 6 9 -3 16 -11 16 -16z"/>
<path d="M2280 2384 c0 -3 6 -11 13 -18 17 -17 97 -9 97 10 0 10 -15 14 -55
14 -30 0 -55 -3 -55 -6z"/>
<path d="M2858 2345 c-2 -29 1 -46 9 -50 9 -3 13 10 13 45 0 62 -17 66 -22 5z"/>
<path d="M2355 2220 c3 -5 15 -10 26 -10 10 0 19 5 19 10 0 6 -12 10 -26 10
-14 0 -23 -4 -19 -10z"/>
<path d="M2418 2093 c12 -2 32 -2 45 0 12 2 2 4 -23 4 -25 0 -35 -2 -22 -4z"/>
<path d="M2560 910 c0 -5 5 -10 11 -10 5 0 7 5 4 10 -3 6 -8 10 -11 10 -2 0
-4 -4 -4 -10z"/>
<path d="M2640 860 c0 -5 5 -10 10 -10 6 0 10 5 10 10 0 6 -4 10 -10 10 -5 0
-10 -4 -10 -10z"/>
<path d="M819 3337 c-88 -58 -86 -172 4 -228 57 -36 164 -11 166 39 1 10 4 36
7 58 7 48 -14 97 -49 115 -12 7 -26 18 -30 25 -12 21 -60 17 -98 -9z"/>
<path d="M1542 3255 c0 -16 2 -22 5 -12 2 9 2 23 0 30 -3 6 -5 -1 -5 -18z"/>
<path d="M1541 3174 c0 -11 3 -14 6 -6 3 7 2 16 -1 19 -3 4 -6 -2 -5 -13z"/>
<path d="M1123 3160 c-28 -12 -63 -67 -63 -100 0 -31 31 -79 62 -96 31 -18 63
-17 98 1 40 21 60 53 60 98 0 31 -7 46 -34 73 -36 36 -75 43 -123 24z"/>
<path d="M1537 3063 c-4 -3 -7 -11 -7 -17 0 -6 5 -5 12 2 6 6 9 14 7 17 -3 3
-9 2 -12 -2z"/>
<path d="M834 3026 c-45 -20 -77 -70 -77 -122 0 -131 181 -186 247 -74 21 37
20 104 -1 142 -20 33 -79 68 -115 68 -13 -1 -37 -7 -54 -14z"/>
<path d="M1535 2971 c0 -16 3 -33 8 -37 4 -4 7 9 7 29 0 21 -3 37 -7 37 -5 0
-8 -13 -8 -29z"/>
<path d="M1530 2830 c0 -5 5 -10 10 -10 6 0 10 5 10 10 0 6 -4 10 -10 10 -5 0
-10 -4 -10 -10z"/>
<path d="M3110 2569 c0 -124 3 -188 10 -184 6 4 10 78 10 191 0 116 -4 184
-10 184 -6 0 -10 -70 -10 -191z"/>
<path d="M1530 2610 c0 -5 5 -10 10 -10 6 0 10 5 10 10 0 6 -4 10 -10 10 -5 0
-10 -4 -10 -10z"/>
<path d="M1530 2534 c0 -8 5 -12 10 -9 6 3 10 10 10 16 0 5 -4 9 -10 9 -5 0
-10 -7 -10 -16z"/>
<path d="M1530 2330 c0 -11 4 -20 9 -20 5 0 7 9 4 20 -3 11 -7 20 -9 20 -2 0
-4 -9 -4 -20z"/>
<path d="M1542 1770 c0 -14 2 -19 5 -12 2 6 2 18 0 25 -3 6 -5 1 -5 -13z"/>
<path d="M1541 1174 c0 -11 3 -14 6 -6 3 7 2 16 -1 19 -3 4 -6 -2 -5 -13z"/>
<path d="M1541 604 c0 -11 3 -14 6 -6 3 7 2 16 -1 19 -3 4 -6 -2 -5 -13z"/>
<path d="M1542 525 c0 -16 2 -22 5 -12 2 9 2 23 0 30 -3 6 -5 -1 -5 -18z"/>
<path d="M1848 293 c7 -3 16 -2 19 1 4 3 -2 6 -13 5 -11 0 -14 -3 -6 -6z"/>
<path d="M1948 293 c7 -3 16 -2 19 1 4 3 -2 6 -13 5 -11 0 -14 -3 -6 -6z"/>
<path d="M2251 296 c7 -8 159 -9 166 -2 3 3 -33 6 -82 6 -49 0 -86 -2 -84 -4z"/>
</g>
</svg>
