<?xml version="1.0" standalone="no"?>
<!DOCTYPE svg PUBLIC "-//W3C//DTD SVG 20010904//EN"
 "http://www.w3.org/TR/2001/REC-SVG-20010904/DTD/svg10.dtd">
<svg version="1.0" xmlns="http://www.w3.org/2000/svg"
 width="474.000000pt" height="451.000000pt" viewBox="0 0 474.000000 451.000000"
 preserveAspectRatio="xMidYMid meet">

<g transform="translate(0.000000,451.000000) scale(0.100000,-0.100000)"
fill="#000000" stroke="none">
<path d="M2840 4501 c0 -5 -10 -13 -22 -17 -13 -4 -68 -33 -123 -64 -233 -134
-393 -130 -713 21 l-108 50 -199 -76 c-165 -63 -296 -114 -682 -262 -6 -2
-139 -152 -296 -331 -514 -591 -679 -777 -688 -780 -16 -6 -10 -18 35 -68 24
-27 133 -149 242 -270 110 -122 246 -276 304 -342 l105 -120 50 -1 c50 -1 50
-1 142 91 l93 93 0 -1179 c0 -893 3 -1188 12 -1213 l12 -33 1358 0 c1280 0
1359 1 1376 17 9 10 27 25 39 33 l21 15 -9 810 c-12 1155 -15 1515 -9 1515 3
-1 48 -41 100 -90 52 -50 101 -90 110 -89 60 2 59 1 569 575 68 76 137 151
152 166 27 26 29 33 29 103 0 41 -4 75 -9 75 -8 0 -370 388 -799 856 -72 79
-105 107 -145 124 -29 13 -151 67 -272 122 -121 55 -301 136 -400 181 -99 45
-181 85 -183 89 -5 11 -92 10 -92 -1z"/>
</g>
</svg>
