<?xml version="1.0" standalone="no"?>
<!DOCTYPE svg PUBLIC "-//W3C//DTD SVG 20010904//EN"
 "http://www.w3.org/TR/2001/REC-SVG-20010904/DTD/svg10.dtd">
<svg version="1.0" xmlns="http://www.w3.org/2000/svg"
 width="474.000000pt" height="316.000000pt" viewBox="0 0 474.000000 316.000000"
 preserveAspectRatio="xMidYMid meet">

<g transform="translate(0.000000,316.000000) scale(0.100000,-0.100000)"
fill="#000000" stroke="none">
<path d="M1946 2903 c10 -44 63 -145 91 -175 38 -40 156 -94 267 -123 54 -14
99 -24 101 -23 1 2 7 22 14 46 6 23 25 57 41 75 l29 33 -72 23 c-92 29 -241
89 -337 135 -41 20 -89 36 -107 36 -31 0 -33 -2 -27 -27z"/>
<path d="M1882 2853 c-20 -69 -23 -95 -28 -237 -2 -78 -8 -152 -14 -166 -9
-24 -121 -379 -135 -430 -4 -14 -34 -87 -67 -164 l-59 -138 23 -26 c69 -75
323 -288 431 -361 148 -99 387 -237 532 -306 241 -115 563 -245 717 -290 86
-25 306 -60 315 -51 5 4 -2 68 -23 202 -4 28 -14 35 -123 87 -65 32 -120 57
-124 57 -15 0 -240 149 -317 210 -300 240 -518 582 -619 975 -33 127 -49 205
-57 273 -8 72 -3 68 -120 102 -149 44 -236 117 -286 243 -12 31 -25 57 -29 57
-3 0 -11 -17 -17 -37z m279 -635 c24 -16 47 -49 79 -112 43 -85 45 -95 48
-186 5 -136 -25 -220 -103 -289 -67 -59 -153 -50 -248 25 -71 55 -104 111
-116 198 -17 120 20 244 97 323 63 65 178 84 243 41z"/>
<path d="M2072 2163 c-5 -21 -15 -70 -22 -110 l-13 -72 64 -125 c35 -69 70
-133 77 -143 11 -16 13 -16 26 3 31 41 49 130 44 213 -4 67 -11 93 -42 155
-57 116 -117 151 -134 79z"/>
<path d="M1970 2168 c-19 -13 -49 -51 -69 -87 -30 -56 -35 -76 -39 -148 -3
-46 -1 -83 4 -83 5 1 35 26 66 58 57 57 57 57 78 161 11 57 20 107 20 112 0
16 -26 10 -60 -13z"/>
<path d="M1927 1847 l-58 -52 29 -40 c31 -43 70 -81 76 -74 4 5 18 219 14 219
-2 -1 -29 -24 -61 -53z"/>
<path d="M2025 1774 c-5 -79 -4 -119 3 -126 6 -6 31 -11 56 -11 49 0 82 18 67
37 -5 6 -32 57 -60 114 -29 56 -54 102 -56 102 -2 0 -6 -52 -10 -116z"/>
<path d="M213 2790 c-46 -28 -58 -78 -38 -167 3 -12 29 -38 57 -59 29 -20 59
-44 66 -53 14 -18 16 -81 2 -81 -5 0 -13 -1 -17 -2 -5 -2 -10 17 -13 41 l-5
44 -48 1 -47 1 0 -42 c0 -84 38 -123 120 -123 98 0 139 49 125 150 -8 60 -28
87 -95 130 -44 28 -50 36 -50 66 0 44 28 47 37 4 5 -28 8 -30 54 -30 45 0 49
2 49 24 0 12 -5 37 -11 54 -20 58 -122 81 -186 42z"/>
<path d="M791 2793 c-54 -27 -63 -62 -59 -235 l3 -150 33 -29 c37 -33 84 -38
120 -13 12 8 22 10 22 5 0 -6 18 -11 40 -11 l41 0 -3 118 -3 117 -62 3 -63 3
0 -36 c0 -19 5 -35 11 -35 6 0 9 -19 7 -47 -2 -36 -7 -49 -21 -51 -16 -3 -17
7 -15 145 3 124 5 148 18 148 10 0 16 -13 18 -42 l3 -43 56 0 55 0 -7 48 c-9
61 -19 79 -58 102 -39 24 -91 25 -136 3z"/>
<path d="M430 2786 c0 -7 14 -104 30 -214 17 -111 30 -204 30 -207 0 -3 38 -5
85 -5 47 0 85 4 85 9 0 5 11 96 25 202 14 107 25 202 25 212 0 14 -9 17 -54
17 -65 0 -62 7 -72 -155 -8 -133 -17 -125 -28 25 -10 134 -8 130 -72 130 -39
0 -54 -4 -54 -14z"/>
<path d="M2552 2710 c-41 -10 -66 -32 -87 -77 -24 -50 -10 -74 54 -96 79 -28
115 -70 146 -174 57 -190 68 -221 102 -295 l36 -78 56 0 c31 0 85 -5 120 -10
35 -6 66 -9 68 -6 3 3 -38 87 -92 187 -99 188 -119 245 -141 417 -8 62 -40
107 -91 128 -35 15 -117 17 -171 4z"/>
<path d="M2375 2499 c35 -219 100 -447 175 -607 22 -47 82 -151 132 -230 75
-118 110 -163 192 -242 187 -182 323 -277 561 -393 83 -41 156 -81 163 -89 7
-9 19 -60 27 -114 23 -159 19 -154 119 -154 42 0 47 2 41 17 -24 57 -45 156
-51 248 l-7 106 -45 39 c-36 32 -48 38 -63 29 -11 -5 -19 -20 -19 -35 0 -28
-19 -39 -55 -30 -52 13 -56 76 -5 76 42 0 47 19 8 32 -18 6 -66 29 -107 50
-57 30 -76 36 -87 27 -8 -6 -12 -15 -9 -19 8 -12 -5 -38 -21 -44 -25 -10 -74
22 -74 47 0 31 18 47 55 47 30 0 30 1 -34 60 -69 64 -101 72 -101 24 0 -16 -8
-28 -25 -36 -35 -16 -75 12 -75 52 0 34 23 50 69 50 17 0 31 3 31 8 -1 4 -25
33 -54 65 -47 51 -56 57 -80 51 -15 -3 -31 -17 -36 -29 -11 -29 -25 -38 -48
-30 -29 9 -46 48 -33 74 10 17 21 21 61 21 28 0 50 2 50 5 0 3 -25 36 -57 75
-36 46 -61 69 -70 65 -8 -3 -28 -5 -44 -5 -19 0 -29 -5 -29 -15 0 -9 -11 -21
-25 -27 -22 -10 -29 -8 -50 12 -29 27 -31 47 -9 78 18 26 37 28 57 7 16 -16
77 -11 77 6 0 14 -92 169 -100 169 -22 0 -70 -24 -70 -35 0 -41 -74 -43 -89
-2 -16 40 9 62 73 63 31 0 59 4 63 7 3 4 -12 46 -35 94 -23 49 -53 131 -67
183 -56 203 -72 226 -181 259 -38 12 -77 24 -88 27 -16 5 -17 2 -11 -37z m169
-121 c23 -38 -36 -77 -64 -43 -10 12 -10 21 -1 41 13 29 47 30 65 2z m60 -227
c32 -36 -3 -83 -45 -61 -21 12 -25 50 -7 68 17 17 32 15 52 -7z"/>
<path d="M820 2130 c-51 -12 -70 -42 -70 -110 0 -32 3 -65 6 -74 3 -9 35 -39
71 -67 60 -47 64 -52 61 -87 -4 -54 -32 -50 -36 6 l-3 42 -51 0 -50 0 4 -56
c6 -67 26 -91 88 -102 99 -18 151 15 158 100 6 78 -14 119 -82 164 -56 37 -75
67 -62 100 10 25 31 10 34 -24 3 -31 5 -32 53 -32 l49 0 0 39 c0 49 -29 87
-78 101 -42 11 -43 11 -92 0z"/>
<path d="M265 2118 c-3 -8 -4 -108 -3 -223 l3 -210 93 -2 92 -1 0 44 0 44 -40
0 -40 0 0 50 0 50 35 0 c35 0 35 0 35 45 0 45 0 45 -35 45 -34 0 -35 1 -35 40
l0 40 41 0 40 0 -3 43 -3 42 -88 3 c-65 2 -89 -1 -92 -10z"/>
<path d="M492 1908 l3 -223 50 0 50 0 3 86 3 86 40 6 c68 9 79 27 79 124 0 46
-5 93 -10 103 -14 25 -70 40 -153 40 l-67 0 2 -222z m136 84 c2 -42 0 -52 -12
-52 -13 0 -16 12 -16 56 0 73 24 70 28 -4z"/>
<path d="M2842 1933 c12 -27 64 -113 68 -113 6 0 90 106 90 114 0 3 -36 6 -81
6 -44 0 -79 -3 -77 -7z"/>
<path d="M3019 1888 c-13 -18 -38 -51 -56 -72 -18 -22 -30 -42 -27 -45 5 -5
234 -10 234 -5 0 1 -19 35 -43 76 -51 86 -73 96 -108 46z"/>
<path d="M3775 1836 c-38 -10 -389 -127 -483 -161 -16 -6 75 -94 98 -95 8 0
56 13 105 29 166 54 336 92 440 98 98 5 101 4 165 -29 54 -27 71 -42 98 -88
55 -93 75 -175 70 -293 -3 -86 -8 -110 -31 -153 -28 -55 -27 -64 8 -64 16 0
28 13 48 53 40 80 50 136 45 255 -5 118 -31 199 -94 299 -81 128 -290 194
-469 149z"/>
<path d="M3003 1720 l-31 -5 38 -47 38 -48 27 46 c15 25 24 49 20 52 -8 8 -47
9 -92 2z"/>
<path d="M3121 1659 c-18 -33 -31 -62 -30 -63 2 -2 41 4 86 13 l81 17 -29 39
c-54 72 -65 72 -108 -6z"/>
<path d="M1557 1663 c-3 -5 -8 -25 -12 -45 -7 -35 -4 -39 62 -105 148 -147
479 -384 708 -508 50 -27 104 -56 120 -65 17 -10 84 -45 150 -80 66 -34 161
-84 210 -110 50 -27 168 -81 264 -120 196 -82 193 -82 189 14 l-3 59 -95 32
c-178 61 -506 201 -694 298 -298 153 -606 365 -809 557 -47 44 -88 77 -90 73z"/>
<path d="M3880 1661 c-24 -7 -22 -9 24 -30 50 -23 59 -21 71 17 6 20 3 22 -32
21 -21 -1 -49 -4 -63 -8z"/>
<path d="M4013 1633 c-7 -15 -13 -32 -13 -39 0 -10 72 -44 93 -44 6 0 37 53
37 64 0 8 -77 46 -92 46 -7 0 -19 -12 -25 -27z"/>
<path d="M3727 1633 c-28 -4 -72 -58 -61 -75 3 -5 23 -17 44 -28 l39 -20 19
28 c38 53 44 72 31 88 -11 14 -19 15 -72 7z"/>
<path d="M3613 1603 c-18 -7 -16 -23 2 -23 8 0 15 7 15 15 0 8 -1 15 -2 14 -2
0 -9 -3 -15 -6z"/>
<path d="M3834 1568 c-9 -18 -23 -43 -31 -55 -13 -20 -12 -23 16 -37 16 -9 34
-16 40 -16 5 0 24 23 41 51 35 57 31 71 -22 84 -23 6 -29 2 -44 -27z"/>
<path d="M3180 1568 c-30 -5 -58 -12 -62 -16 -4 -4 12 -27 36 -51 l44 -43 16
31 c25 48 36 80 28 84 -4 2 -32 0 -62 -5z"/>
<path d="M3279 1533 c-6 -21 -18 -47 -25 -58 -20 -28 -18 -48 4 -37 9 5 47 17
85 27 37 10 67 21 67 26 0 13 -86 79 -103 79 -9 0 -20 -15 -28 -37z"/>
<path d="M3463 1558 c-18 -6 -33 -14 -33 -19 0 -10 105 -99 117 -99 6 0 19 19
29 43 10 23 20 44 21 47 6 10 -55 40 -79 39 -12 -1 -38 -6 -55 -11z"/>
<path d="M4145 1551 c-5 -16 -2 -26 12 -36 10 -8 21 -15 26 -15 13 0 7 28 -12
51 l-18 23 -8 -23z"/>
<path d="M3937 1493 l-35 -58 45 -28 c25 -16 51 -26 58 -23 11 4 65 104 65
120 0 7 -46 31 -76 40 -17 5 -27 -3 -57 -51z"/>
<path d="M1512 1482 c-11 -40 -10 -54 2 -84 34 -80 176 -184 444 -324 103 -53
243 -136 312 -183 186 -128 418 -267 537 -322 204 -94 409 -176 417 -168 4 4
9 72 7 96 -1 16 -28 30 -196 98 -119 48 -367 170 -560 275 -27 15 -99 54 -160
87 -259 141 -590 377 -743 530 -24 24 -44 43 -46 43 -1 0 -8 -22 -14 -48z"/>
<path d="M3611 1462 l-29 -58 38 -22 c22 -12 44 -22 50 -22 11 0 66 108 59
114 -2 2 -23 13 -46 25 l-43 21 -29 -58z"/>
<path d="M4077 1420 l-34 -68 43 -22 c23 -12 47 -19 53 -15 12 7 84 116 79
119 -2 2 -26 14 -55 29 l-51 26 -35 -69z"/>
<path d="M745 1456 c-62 -28 -68 -43 -73 -194 -4 -154 6 -202 50 -235 32 -24
83 -25 108 -2 15 13 19 14 29 1 7 -8 24 -14 39 -13 l27 2 3 118 3 117 -66 0
-65 0 0 -30 c0 -16 5 -30 10 -30 14 0 13 -97 -1 -106 -22 -13 -29 23 -29 151
0 72 4 136 9 144 15 23 31 2 31 -40 l0 -39 56 0 57 0 -6 52 c-7 60 -34 93 -86
108 -46 13 -59 12 -96 -4z"/>
<path d="M257 1453 c-4 -3 -7 -85 -7 -181 0 -167 -1 -174 -21 -179 -16 -5 -19
-12 -17 -42 l3 -36 54 2 c91 4 91 3 91 240 l0 203 -48 0 c-27 0 -52 -3 -55 -7z"/>
<path d="M412 1238 l3 -222 50 0 50 -1 3 88 3 87 29 0 c43 0 80 20 88 49 10
38 6 155 -7 179 -14 27 -68 42 -154 42 l-67 0 2 -222z m138 87 c0 -42 -3 -55
-15 -55 -12 0 -15 13 -15 55 0 42 3 55 15 55 12 0 15 -13 15 -55z"/>
<path d="M3446 1439 c-2 -8 -11 -40 -21 -72 -9 -32 -14 -61 -12 -64 5 -4 153
34 170 44 5 3 -15 22 -44 42 -28 20 -60 42 -70 50 -16 11 -19 11 -23 0z"/>
<path d="M3760 1440 c0 -6 -10 -31 -22 -56 -21 -46 -21 -47 -2 -61 48 -36 50
-36 78 29 14 34 25 62 23 63 -6 6 -67 35 -72 35 -3 0 -5 -5 -5 -10z"/>
<path d="M3328 1417 c-38 -11 -68 -24 -68 -27 0 -4 22 -25 48 -48 l49 -41 15
37 c14 32 31 103 25 101 -1 0 -32 -10 -69 -22z"/>
<path d="M3852 1337 c-12 -29 -22 -57 -22 -62 0 -11 77 -51 84 -44 2 2 18 27
34 56 l31 52 -44 25 c-24 14 -48 26 -52 26 -5 0 -19 -24 -31 -53z"/>
<path d="M4203 1327 c-28 -47 -28 -54 -2 -62 28 -9 31 -4 27 51 l-3 49 -22
-38z"/>
<path d="M3518 1284 c-43 -14 -78 -28 -78 -32 0 -5 102 -53 171 -80 12 -5 22
64 15 103 -4 19 -12 35 -19 34 -7 0 -47 -12 -89 -25z"/>
<path d="M3670 1256 c0 -30 -3 -62 -6 -71 -5 -12 10 -8 60 17 36 18 62 35 58
39 -4 4 -31 21 -59 38 l-53 30 0 -53z"/>
<path d="M4002 1298 c-14 -18 -42 -75 -42 -86 0 -9 78 -48 83 -41 1 2 17 25
35 51 l33 47 -40 21 c-47 23 -55 24 -69 8z"/>
<path d="M4115 1203 c-14 -21 -25 -42 -25 -48 0 -5 18 -17 40 -27 44 -18 50
-15 75 45 15 36 15 37 -14 52 -42 21 -47 20 -76 -22z"/>
<path d="M1570 1199 c-25 -4 -111 -12 -191 -17 -170 -11 -197 -22 -229 -90
l-21 -43 23 -20 c13 -11 70 -43 128 -71 76 -36 122 -67 167 -109 34 -33 65
-59 70 -59 5 0 25 21 44 46 37 50 147 135 246 191 35 19 63 38 63 43 0 4 -14
13 -31 20 -17 8 -70 37 -116 67 -47 29 -90 52 -97 52 -6 -1 -31 -5 -56 -10z"/>
<path d="M3761 1174 l-74 -35 38 -39 c36 -37 38 -42 47 -137 6 -54 12 -100 14
-102 2 -2 43 34 92 80 48 46 113 100 144 119 32 19 57 38 58 42 0 4 -10 10
-22 14 -13 4 -65 26 -116 50 -52 24 -97 44 -100 43 -4 0 -40 -16 -81 -35z"/>
<path d="M4057 1034 c-76 -50 -243 -206 -252 -236 -4 -10 1 -43 11 -73 l17
-55 88 0 c140 0 340 48 443 105 52 30 91 60 109 85 l27 38 -50 31 c-28 17 -53
31 -56 31 -3 0 -22 11 -42 25 -20 14 -44 25 -52 25 -9 0 -48 16 -89 35 -40 19
-76 35 -79 35 -4 -1 -38 -21 -75 -46z"/>
<path d="M1889 1026 c-74 -41 -196 -121 -235 -153 -58 -47 -92 -100 -126 -194
-39 -111 -38 -166 5 -226 63 -89 129 -152 190 -183 93 -46 108 -41 54 20 -66
73 -80 110 -75 190 4 50 14 86 42 143 32 68 47 84 140 164 57 48 129 103 160
121 31 18 56 36 56 40 0 4 -40 27 -88 52 l-89 45 -34 -19z"/>
<path d="M1120 932 c0 -132 46 -224 133 -268 28 -15 83 -47 121 -71 70 -45 85
-46 86 -1 0 10 10 47 21 82 l22 65 -64 61 c-45 44 -93 76 -162 110 -53 27
-111 58 -127 70 l-30 21 0 -69z"/>
<path d="M2108 899 l-27 -20 21 -47 c11 -26 29 -66 39 -89 11 -23 19 -44 19
-48 0 -3 31 -74 69 -158 37 -83 76 -173 86 -199 19 -52 21 -53 78 -37 30 8 37
14 32 27 -4 9 -22 58 -40 107 -18 50 -55 142 -83 205 -27 63 -59 144 -71 180
-16 50 -28 70 -50 83 -36 21 -40 21 -73 -4z"/>
<path d="M4493 821 c-65 -75 -184 -131 -353 -166 -131 -27 -141 -27 -360 -22
-194 6 -314 17 -446 43 l-31 6 -11 -79 c-6 -43 -13 -110 -16 -150 -4 -66 -3
-72 17 -77 45 -12 485 -46 601 -46 134 0 296 18 454 50 128 26 146 33 199 76
50 41 63 78 63 180 0 121 -27 218 -66 231 -5 2 -28 -19 -51 -46z"/>
<path d="M2002 830 c-45 -32 -47 -38 -33 -85 5 -17 25 -84 45 -150 34 -116
109 -332 119 -341 7 -7 141 16 150 25 5 5 -17 66 -48 137 -31 71 -86 199 -122
284 -36 85 -66 156 -67 158 -2 1 -22 -11 -44 -28z"/>
<path d="M2270 837 c0 -7 41 -112 75 -190 35 -82 40 -89 86 -112 l49 -24 16
37 c17 39 44 112 44 118 0 2 -15 11 -32 20 -18 9 -79 48 -135 85 -57 38 -103
68 -103 66z"/>
<path d="M893 785 c-60 -26 -68 -51 -68 -220 0 -170 8 -195 70 -221 35 -14 76
-7 90 15 9 15 25 14 25 -1 0 -8 14 -13 35 -13 l35 0 0 118 0 117 -65 0 -65 0
0 -29 c0 -16 5 -31 12 -33 14 -5 12 -88 -2 -102 -18 -18 -24 5 -27 112 -4 132
3 192 23 192 10 0 14 -13 14 -45 l0 -45 55 0 55 0 0 34 c0 51 -18 90 -50 110
-40 23 -98 28 -137 11z"/>
<path d="M270 575 c0 -118 0 -218 0 -222 0 -5 24 -8 53 -7 l52 0 3 86 3 85 40
6 c68 9 79 27 79 124 0 46 -5 93 -10 103 -14 25 -70 40 -152 40 l-68 0 0 -215z
m135 80 c0 -30 -5 -50 -12 -52 -10 -4 -13 11 -13 52 0 41 3 56 13 53 7 -3 12
-23 12 -53z"/>
<path d="M540 567 l0 -224 43 1 42 2 5 89 5 90 26 -89 25 -89 47 -2 47 -2 0
224 0 224 -42 -3 -43 -3 -5 -90 -5 -90 -28 93 -28 92 -44 0 -45 0 0 -223z"/>
<path d="M1863 712 c-62 -56 -111 -152 -120 -236 -5 -47 -2 -61 20 -99 15 -24
52 -67 82 -96 l57 -51 71 0 c127 0 123 -10 67 148 -26 76 -62 189 -80 252 -18
63 -35 118 -39 122 -3 4 -30 -14 -58 -40z"/>
<path d="M2546 563 l-30 -76 34 -29 c19 -15 37 -28 40 -28 3 1 25 35 49 76 36
62 41 78 30 85 -17 12 -87 49 -91 49 -2 0 -16 -35 -32 -77z"/>
<path d="M2710 550 c0 -6 -18 -39 -40 -74 -22 -35 -40 -68 -40 -74 0 -26 44
-22 133 12 50 19 106 40 122 47 30 11 30 11 -64 55 -99 47 -111 50 -111 34z"/>
<path d="M2410 493 c0 -10 57 -164 63 -169 6 -7 127 28 127 36 0 8 -135 112
-167 129 -13 6 -23 8 -23 4z"/>
</g>
</svg>
